<svg width="55" height="76" viewBox="0 0 55 76" fill="none" xmlns="http://www.w3.org/2000/svg">
<path d="M7.30792 23.2116C7.34122 23.3972 7.41077 23.5743 7.51255 23.7327C7.61432 23.8911 7.7463 24.0276 7.90088 24.1344C8.05545 24.2412 8.22962 24.3162 8.41319 24.355C8.59676 24.3938 8.78614 24.3957 8.97042 24.3605L12.1222 23.7338L9.14356 24.9526C8.7945 25.1004 8.51814 25.3815 8.37525 25.7341C8.23235 26.0867 8.23462 26.4819 8.38159 26.8329C8.52856 27.1838 8.80814 27.4615 9.15888 27.6052C9.50963 27.7489 9.90284 27.7466 10.2519 27.5988L13.2304 26.3453L10.5289 28.1561C10.3743 28.2613 10.2417 28.396 10.1389 28.5527C10.0361 28.7093 9.965 28.8848 9.92963 29.0691C9.89425 29.2534 9.89533 29.4429 9.9328 29.6268C9.97027 29.8107 10.0434 29.9854 10.148 30.1409C10.2526 30.2964 10.3866 30.4296 10.5425 30.533C10.6983 30.6364 10.8728 30.7078 11.0561 30.7434C11.2395 30.779 11.4279 30.7779 11.6108 30.7402C11.7937 30.7025 11.9676 30.629 12.1222 30.5239L14.789 28.7131L12.5031 31.0114C12.2368 31.2792 12.0871 31.6424 12.0871 32.0211C12.0871 32.3999 12.2368 32.763 12.5031 33.0308C12.7695 33.2987 13.1308 33.4491 13.5076 33.4491C13.8843 33.4491 14.2456 33.2987 14.512 33.0309L16.7978 30.7328L14.9968 33.4487C14.7902 33.7673 14.7179 34.1555 14.7958 34.5277C14.8738 34.8999 15.0955 35.2257 15.4124 35.4335C15.7294 35.6413 16.1154 35.714 16.4856 35.6356C16.8558 35.5572 17.18 35.3343 17.3867 35.0157L19.1531 32.3346L17.9408 35.3291C17.8369 35.5052 17.7718 35.7017 17.75 35.9053C17.7283 36.1089 17.7503 36.3148 17.8146 36.5091C17.879 36.7034 17.9842 36.8815 18.123 37.0313C18.2619 37.1811 18.4313 37.2991 18.6195 37.3773C18.8077 37.4555 19.0104 37.4921 19.2139 37.4846C19.4175 37.4771 19.6171 37.4256 19.7991 37.3337C19.9811 37.2418 20.1413 37.1116 20.2689 36.952C20.3965 36.7924 20.4884 36.6071 20.5384 36.4086L21.7852 33.414L21.1618 36.6175C21.1035 36.8083 21.0857 37.0093 21.1094 37.2075C21.1331 37.4056 21.1979 37.5965 21.2996 37.7679C21.4012 37.9393 21.5375 38.0875 21.6996 38.2027C21.8617 38.3179 22.0461 38.3976 22.2408 38.4367C22.4355 38.4759 22.6361 38.4736 22.8298 38.4299C23.0236 38.3863 23.206 38.3023 23.3654 38.1834C23.5248 38.0645 23.6577 37.9132 23.7554 37.7394C23.8531 37.5657 23.9134 37.3732 23.9326 37.1745L24.5561 33.9711L24.5561 37.2094C24.5561 37.588 24.7057 37.9512 24.972 38.2189C25.2383 38.4866 25.5995 38.6371 25.9761 38.6371C26.3527 38.6371 26.7138 38.4866 26.9801 38.2189C27.2464 37.9512 27.3961 37.588 27.3961 37.2094L27.3961 33.9711L28.0541 37.1745C28.1294 37.543 28.3463 37.8668 28.6576 38.0754C28.9688 38.2841 29.3494 38.3607 29.7166 38.2888C30.0787 38.2052 30.3953 37.9856 30.6014 37.6748C30.8075 37.364 30.8875 36.9857 30.825 36.6175L30.2016 33.414L31.4137 36.4086C31.5597 36.7611 31.8372 37.0423 32.1867 37.192C32.5362 37.3416 32.93 37.3478 33.284 37.2094C33.4575 37.1371 33.6151 37.0309 33.7475 36.897C33.8799 36.763 33.9846 36.6041 34.0555 36.4292C34.1264 36.2543 34.162 36.0669 34.1604 35.8781C34.1587 35.6893 34.1199 35.5028 34.046 35.3291L32.8337 32.3346L34.6002 35.0157C34.8116 35.3284 35.1353 35.5466 35.5034 35.6246C35.8715 35.7025 36.2554 35.634 36.5744 35.4335C36.7292 35.3285 36.8618 35.1938 36.9648 35.0371C37.0678 34.8805 37.139 34.705 37.1744 34.5207C37.2098 34.3363 37.2086 34.1467 37.171 33.9628C37.1334 33.7789 37.0601 33.6041 36.9553 33.4487L35.1889 30.7328L37.4748 33.0309C37.7412 33.2987 38.1025 33.4491 38.4792 33.4491C38.856 33.4491 39.2173 33.2987 39.4837 33.0309C39.7501 32.763 39.8997 32.3999 39.8997 32.0211C39.8997 31.6424 39.7501 31.2792 39.4837 31.0114L37.1978 28.7131L39.8646 30.5239C40.0192 30.6293 40.1929 30.7028 40.3759 30.7406C40.5588 30.7784 40.7474 30.7796 40.9308 30.744C41.1142 30.7085 41.2887 30.6369 41.4446 30.5334C41.6004 30.4299 41.7344 30.2965 41.8388 30.1409C41.9436 29.9855 42.017 29.8107 42.0545 29.6268C42.0921 29.4429 42.0933 29.2533 42.0579 29.0689C42.0225 28.8845 41.9513 28.7091 41.8483 28.5524C41.7454 28.3958 41.6127 28.2611 41.4579 28.1561L38.7564 26.3453L41.7349 27.5988C41.9076 27.6731 42.0932 27.7122 42.2811 27.7138C42.4689 27.7154 42.6551 27.6796 42.8291 27.6084C43.003 27.5371 43.1613 27.4319 43.2945 27.2987C43.4277 27.1656 43.5333 27.0073 43.6052 26.8329C43.7451 26.4813 43.7437 26.0888 43.6016 25.7381C43.4595 25.3874 43.1877 25.1059 42.8433 24.9526L39.8646 23.7338L43.0164 24.3605C43.3884 24.4344 43.7744 24.3568 44.0894 24.1446C44.4044 23.9324 44.6227 23.6028 44.6962 23.2288C44.7697 22.8548 44.6923 22.4669 44.4812 22.1502C44.2701 21.8335 43.9426 21.6139 43.5706 21.5401L40.4188 20.9133L43.6398 20.9133C44.0164 20.9133 44.3776 20.763 44.6439 20.4953C44.9102 20.2275 45.0598 19.8644 45.0598 19.4858C45.051 19.1099 44.8986 18.7519 44.6342 18.486C44.3698 18.2202 44.0136 18.0668 43.6398 18.058L40.4188 18.058L43.5706 17.4312C43.7682 17.412 43.9595 17.3514 44.1323 17.2531C44.3052 17.1549 44.4556 17.0213 44.5739 16.861C44.6922 16.7007 44.7757 16.5172 44.8192 16.3225C44.8626 16.1277 44.8649 15.9261 44.8259 15.7304C44.787 15.5347 44.7078 15.3493 44.5932 15.1863C44.4786 15.0233 44.3313 14.8862 44.1608 14.784C43.9902 14.6818 43.8002 14.6168 43.6031 14.5929C43.406 14.5691 43.2062 14.587 43.0164 14.6456L39.8646 15.2724L42.8433 14.0189C43.1852 13.8726 43.4564 13.5975 43.5989 13.2525C43.7413 12.9075 43.7436 12.52 43.6052 12.1733C43.4592 11.8207 43.1818 11.5396 42.8323 11.3899C42.4828 11.2402 42.0889 11.234 41.7349 11.3725L38.7564 12.626L41.4579 10.8152C41.6127 10.7102 41.7454 10.5755 41.8483 10.4189C41.9513 10.2622 42.0225 10.0868 42.0579 9.90241C42.0933 9.71804 42.0921 9.52844 42.0545 9.34452C42.017 9.1606 41.9436 8.98603 41.8388 8.83063C41.6221 8.52355 41.2959 8.31221 40.9281 8.24086C40.5604 8.16951 40.1794 8.2435 39.8646 8.44744L37.1978 10.2582L39.4837 7.96011C39.6156 7.8275 39.7202 7.67006 39.7916 7.4968C39.863 7.32353 39.8997 7.13771 39.8997 6.95017C39.8997 6.76263 39.863 6.57702 39.7916 6.40376C39.7202 6.2305 39.6156 6.07306 39.4837 5.94045C39.3518 5.80784 39.1952 5.70256 39.0228 5.63079C38.8505 5.55903 38.6658 5.52219 38.4792 5.52219C38.2927 5.52219 38.108 5.55903 37.9356 5.63079C37.7633 5.70256 37.6067 5.80784 37.4748 5.94045L35.1889 8.23852L36.9553 5.52261C37.0641 5.37163 37.1407 5.19972 37.1805 5.01765C37.2204 4.83558 37.2225 4.64715 37.1868 4.46422C37.151 4.2813 37.0782 4.10777 36.9728 3.95437C36.8675 3.80096 36.7319 3.67107 36.5744 3.57266C36.4198 3.46727 36.2461 3.39346 36.0631 3.35567C35.8802 3.31788 35.6916 3.31669 35.5082 3.35227C35.3248 3.38785 35.1502 3.45958 34.9944 3.5631C34.8386 3.66662 34.7046 3.79999 34.6002 3.95564L32.8337 6.6369L34.046 3.64216C34.1193 3.47103 34.1577 3.28695 34.1589 3.10064C34.1601 2.91433 34.1241 2.72971 34.0531 2.55763C33.982 2.38555 33.8773 2.22946 33.7452 2.09878C33.6131 1.96809 33.4563 1.86543 33.284 1.79677C33.1113 1.72251 32.9257 1.68343 32.7379 1.6818C32.5501 1.68016 32.3638 1.71596 32.1898 1.78721C32.0159 1.85846 31.8577 1.96373 31.7245 2.09686C31.5912 2.22999 31.4856 2.38828 31.4137 2.56273L30.2016 5.55747L30.825 2.38867C30.8973 2.0152 30.822 1.62822 30.6151 1.30966C30.4081 0.991097 30.0858 0.766064 29.7166 0.682484C29.5323 0.64729 29.343 0.649201 29.1594 0.688011C28.9758 0.726822 28.8018 0.801773 28.6472 0.908615C28.4926 1.01546 28.3605 1.15209 28.2588 1.31051C28.157 1.46893 28.0874 1.64603 28.0541 1.83163L27.3961 5.00022L27.3961 1.76192C27.3961 1.38328 27.2464 1.02014 26.9801 0.752407C26.7138 0.484673 26.3527 0.334362 25.9761 0.334362C25.5995 0.334362 25.2383 0.484673 24.972 0.752407C24.7057 1.02014 24.5561 1.38328 24.5561 1.76192L24.5561 5.00022L23.9326 1.83163C23.9134 1.63297 23.8531 1.44047 23.7554 1.26673C23.6577 1.09298 23.5248 0.941899 23.3654 0.822968C23.206 0.704033 23.0236 0.619873 22.8298 0.576222C22.6361 0.53257 22.4355 0.530277 22.2408 0.56942C22.0461 0.608563 21.8617 0.688427 21.6996 0.803627C21.5375 0.918827 21.4012 1.06681 21.2996 1.23825C21.1979 1.40968 21.1331 1.60074 21.1094 1.7989C21.0857 1.99706 21.1035 2.19788 21.1618 2.38867L21.7852 5.55747L20.5384 2.56273C20.3642 2.2676 20.09 2.04551 19.7661 1.93704C19.4422 1.82857 19.0904 1.84101 18.7749 1.97211C18.4594 2.10321 18.2015 2.34422 18.0483 2.65093C17.8951 2.95764 17.857 3.30948 17.9408 3.64216L19.2223 6.5672L17.4559 3.88593C17.2492 3.56732 16.9252 3.34435 16.5549 3.26598C16.1847 3.18762 15.7987 3.26031 15.4818 3.4681C15.1649 3.67589 14.943 4.00168 14.865 4.3739C14.7871 4.74612 14.8594 5.1343 15.0661 5.45291L16.8672 8.16902L14.5812 5.87074C14.3149 5.60292 13.9535 5.45248 13.5768 5.45248C13.2001 5.45248 12.8388 5.60292 12.5724 5.87074C12.306 6.13855 12.1563 6.50193 12.1563 6.88067C12.1563 7.25942 12.306 7.62258 12.5724 7.8904L14.8583 10.1885L12.1914 8.37794C11.8766 8.174 11.4956 8.10001 11.1279 8.17136C10.7602 8.24271 10.434 8.45384 10.2172 8.76092C10.1077 8.91471 10.0305 9.08919 9.9903 9.27396C9.95009 9.45873 9.94778 9.64996 9.98343 9.83567C10.0191 10.0214 10.092 10.1978 10.1977 10.3542C10.3034 10.5107 10.4397 10.6439 10.5983 10.7457L13.2998 12.5563L10.3211 11.3028C9.9671 11.1643 9.57327 11.1705 9.22378 11.3202C8.87429 11.4698 8.59693 11.7512 8.45092 12.1038C8.37765 12.2749 8.33925 12.459 8.33804 12.6453C8.33683 12.8316 8.37279 13.0162 8.44384 13.1883C8.51489 13.3604 8.61954 13.5165 8.75163 13.6472C8.88372 13.7778 9.04051 13.8805 9.21279 13.9492L12.1914 15.2027L9.03966 14.5759C8.68941 14.5418 8.33906 14.6397 8.05646 14.8505C7.77387 15.0613 7.57913 15.3701 7.51012 15.717C7.4411 16.0639 7.50272 16.4241 7.68293 16.728C7.86314 17.0319 8.14912 17.2576 8.48549 17.3615L11.6373 17.9885L8.41626 17.9885C8.04241 17.9973 7.68628 18.1505 7.42186 18.4163C7.15743 18.6822 7.00502 19.0402 6.99622 19.416C6.99622 19.7947 7.14583 20.1578 7.41213 20.4256C7.67844 20.6933 8.03964 20.8436 8.41626 20.8436L11.6373 20.8436L8.48549 21.4706C8.29059 21.4991 8.10378 21.5679 7.93681 21.6729C7.76985 21.7779 7.62636 21.9168 7.51561 22.0805C7.40487 22.2443 7.3292 22.4292 7.29344 22.624C7.25768 22.8187 7.26263 23.0189 7.30792 23.2116Z" fill="#E89B23"/>
<path d="M24.2095 37.6971C24.0812 37.9994 23.8636 38.2547 23.5861 38.4284C23.3858 38.5663 23.1598 38.6619 22.9217 38.7098C22.6836 38.7577 22.4383 38.7567 22.2006 38.7068C21.7186 38.6061 21.2954 38.3184 21.0231 37.906C20.8234 37.6467 20.7139 37.3286 20.7114 37.0006C20.5155 37.2638 20.2521 37.4684 19.9494 37.5925C19.4918 37.7663 18.9869 37.7663 18.5294 37.5925C18.0834 37.3901 17.7263 37.0312 17.525 36.5828C17.4393 36.2754 17.4393 35.95 17.525 35.6426C17.2743 35.8502 16.9771 35.9936 16.6592 36.0604C16.4215 36.1103 16.1762 36.1115 15.9381 36.0636C15.7 36.0157 15.474 35.9199 15.2737 35.782C14.9295 35.556 14.6709 35.2203 14.539 34.8288C14.4071 34.4374 14.4097 34.0129 14.5464 33.6231C14.2677 33.8042 13.9431 33.9007 13.6113 33.9016C13.3715 33.8991 13.1347 33.8487 12.9146 33.753C12.6946 33.6573 12.4958 33.5185 12.3298 33.3445C11.9814 32.9924 11.7827 32.5179 11.7756 32.0213C11.7689 31.7025 11.853 31.3883 12.0181 31.1159C11.7123 31.2022 11.3887 31.2022 11.0829 31.1159C10.8437 31.08 10.6148 30.993 10.4117 30.8609C10.2086 30.7288 10.036 30.5547 9.90533 30.35C10.1578 30.0238 10.3118 29.6315 10.3492 29.22C10.3865 28.8084 10.3054 28.3948 10.1158 28.0281C9.92613 27.6614 9.63585 27.3571 9.27929 27.1514C8.92273 26.9458 8.51493 26.8475 8.10436 26.8679C8.00246 26.65 7.94962 26.4122 7.94962 26.1715C7.94962 25.9307 8.00246 25.6929 8.10436 25.475C8.20605 25.1683 8.39963 24.9008 8.65853 24.709C8.33881 24.6737 8.03103 24.5665 7.75799 24.3956C7.5544 24.2642 7.38111 24.0907 7.2497 23.8866C7.11828 23.6824 7.03177 23.4523 6.99602 23.2118C6.90847 22.8146 6.95654 22.3991 7.13248 22.0327C7.30841 21.6663 7.60196 21.3703 7.96579 21.1921C8.22965 20.2383 8.27958 19.2375 8.11187 18.262C7.94416 17.2865 7.56301 16.3606 6.99602 15.5512C7.0604 15.1509 7.2617 14.7857 7.5652 14.5187C7.8687 14.2517 8.2554 14.0996 8.65853 14.0886C8.41502 13.8819 8.22488 13.6192 8.10436 13.3226C8.00181 13.0988 7.94867 12.8552 7.94867 12.6087C7.94867 12.3623 8.00181 12.1189 8.10436 11.895C8.25487 11.5142 8.5271 11.1945 8.87828 10.9865C9.22946 10.7784 9.6396 10.6938 10.0439 10.7459C9.79089 10.4302 9.65293 10.037 9.65293 9.63162C9.65293 9.22622 9.79089 8.833 10.0439 8.51733C10.3163 8.10494 10.7394 7.81723 11.2215 7.71652C11.271 7.79727 11.3391 7.86479 11.4201 7.91353C11.501 7.96228 11.5925 7.99085 11.6866 7.99663C11.7808 8.00242 11.8751 7.98516 11.9614 7.94669C12.0476 7.90822 12.1234 7.84948 12.1824 7.77539C12.2413 7.70131 12.2817 7.61405 12.3001 7.52099C12.3185 7.42794 12.3144 7.33179 12.2881 7.24067C12.2618 7.14955 12.214 7.06625 12.149 6.99754C12.0839 6.92882 12.0034 6.87687 11.9142 6.846C11.9213 6.34938 12.1199 5.87493 12.4683 5.5228C12.6484 5.77741 12.9168 5.95506 13.2205 6.02118C13.5243 6.0873 13.8416 6.03696 14.1104 5.88006C14.3792 5.72316 14.58 5.47119 14.6734 5.17319C14.7669 4.87519 14.7464 4.55283 14.6157 4.2693C14.6772 3.94607 14.8235 3.6452 15.0395 3.39793C15.2555 3.15067 15.5333 2.966 15.8441 2.863C16.155 2.76 16.4877 2.74228 16.8076 2.81199C17.1275 2.88171 17.4229 3.03619 17.6635 3.25937C17.5766 2.94025 17.5766 2.60361 17.6635 2.2845C17.8648 1.83615 18.222 1.47695 18.6679 1.27456C19.1255 1.10075 19.6304 1.10075 20.088 1.27456C20.3833 1.41134 20.6438 1.6139 20.8499 1.86667C20.8524 1.53871 20.9619 1.22061 21.1616 0.961292C21.434 0.548901 21.8571 0.260983 22.3392 0.160271C22.8194 0.0747149 23.314 0.174236 23.7246 0.438896C23.9862 0.630505 24.1998 0.880978 24.3481 1.17021C24.4885 0.824269 24.7281 0.528076 25.0365 0.319668C25.3449 0.111263 25.7082 2.69268e-05 26.0798 2.69312e-05C26.4515 2.69357e-05 26.8146 0.111264 27.1231 0.319668C27.4315 0.528076 27.6712 0.824269 27.8116 1.17021C27.9925 0.805912 28.2861 0.510483 28.6484 0.328385C29.0106 0.146282 29.4219 0.0872195 29.8203 0.160271C29.8891 0.553971 30.0652 0.920937 30.3291 1.21994C30.5929 1.51895 30.9342 1.7384 31.3148 1.85392C31.6954 1.96943 32.1004 1.97638 32.4848 1.8741C32.8691 1.77184 33.2177 1.56425 33.4916 1.27456C33.8632 1.4427 34.1714 1.7262 34.3709 2.08345C34.5704 2.44069 34.6507 2.85286 34.6 3.25937C34.8395 3.02814 35.14 2.87099 35.4658 2.80668C35.946 2.72112 36.4407 2.82064 36.8512 3.0853C37.2614 3.35914 37.5477 3.78463 37.6478 4.2693C37.5172 4.55283 37.4966 4.87519 37.59 5.17319C37.6835 5.47119 37.8843 5.72316 38.1531 5.88006C38.4218 6.03696 38.7393 6.0873 39.043 6.02118C39.3468 5.95506 39.615 5.77741 39.7952 5.5228C40.0821 5.81631 40.2674 6.19499 40.3236 6.60266C40.3797 7.01032 40.3037 7.42516 40.1069 7.78602C40.4135 7.6808 40.7424 7.6592 41.0601 7.72311C41.3777 7.78702 41.6729 7.93434 41.9157 8.15008C42.1584 8.36582 42.34 8.64216 42.442 8.95131C42.5441 9.26046 42.563 9.5914 42.4967 9.91024C42.4289 10.219 42.2861 10.5061 42.0811 10.7459C42.4854 10.6938 42.8954 10.7784 43.2466 10.9865C43.5978 11.1945 43.8701 11.5142 44.0206 11.895C44.1232 12.1189 44.1763 12.3623 44.1763 12.6087C44.1763 12.8552 44.1232 13.0988 44.0206 13.3226C43.9248 13.3174 43.8291 13.3357 43.7419 13.3762C43.6547 13.4166 43.5787 13.4779 43.5205 13.5547C43.4622 13.6314 43.4236 13.7213 43.4078 13.8165C43.392 13.9117 43.3996 14.0093 43.43 14.1009C43.4604 14.1925 43.5126 14.2752 43.582 14.3419C43.6514 14.4085 43.736 14.457 43.8284 14.4832C43.9207 14.5095 44.0182 14.5128 44.1121 14.4926C44.2059 14.4723 44.2934 14.4292 44.367 14.3672C44.7566 14.6547 45.0277 15.0761 45.129 15.5512C45.1806 15.79 45.1826 16.0369 45.1349 16.2765C45.0872 16.5162 44.9909 16.7434 44.8518 16.9439C44.6844 17.2231 44.4451 17.4517 44.1592 17.6055C44.5033 17.7466 44.7977 17.9876 45.005 18.2977C45.2123 18.6078 45.323 18.9729 45.323 19.3465C45.323 19.7201 45.2123 20.0853 45.005 20.3953C44.7977 20.7054 44.5033 20.9464 44.1592 21.0876C44.4437 21.2274 44.6836 21.4445 44.8518 21.7143C44.989 21.9157 45.0843 22.1429 45.1319 22.3823C45.1795 22.6216 45.1786 22.8683 45.129 23.1072C45.0277 23.5823 44.7566 24.0037 44.367 24.2912C44.0837 24.4672 43.7635 24.5743 43.4318 24.6045C43.7108 24.7831 43.9191 25.0541 44.0206 25.3706C44.1225 25.5885 44.1754 25.8261 44.1754 26.0669C44.1754 26.3076 44.1225 26.5455 44.0206 26.7633C43.9357 26.9946 43.802 27.2047 43.6286 27.379C43.4552 27.5534 43.2462 27.6879 43.0162 27.7733C42.7104 27.8595 42.3869 27.8595 42.0811 27.7733C42.499 28.0503 42.7904 28.483 42.891 28.976C42.9917 29.469 42.8935 29.9819 42.6179 30.4021C42.3424 30.8222 41.912 31.1152 41.4216 31.2165C40.9313 31.3177 40.4209 31.2189 40.003 30.9419C39.6017 30.9802 39.2133 31.1049 38.8643 31.3076C38.5153 31.5104 38.2138 31.7865 37.9805 32.1169C37.7471 32.4474 37.5874 32.8244 37.512 33.2225C37.4367 33.6206 37.4476 34.0304 37.5439 34.4239C37.4438 34.9086 37.1575 35.3341 36.7473 35.6079C36.547 35.7459 36.321 35.8415 36.0829 35.8893C35.8448 35.9372 35.5996 35.9362 35.3619 35.8864C35.0439 35.8195 34.7468 35.6762 34.4961 35.4685C34.5636 35.7782 34.5636 36.0991 34.4961 36.4088C34.2948 36.8571 33.9376 37.2161 33.4916 37.4185C33.0341 37.5923 32.5291 37.5923 32.0716 37.4185C31.7689 37.2943 31.5055 37.0898 31.3096 36.8266C31.2802 37.2353 31.1189 37.6231 30.85 37.9311C30.5812 38.2391 30.2196 38.4504 29.8203 38.5328C29.4216 38.6118 29.0079 38.5555 28.6444 38.3727C28.2808 38.19 27.988 37.8912 27.8116 37.523C27.6855 37.8836 27.4511 38.1958 27.1409 38.4167C26.8307 38.6377 26.46 38.7563 26.0798 38.7563C25.6997 38.7563 25.3288 38.6377 25.0186 38.4167C24.7084 38.1958 24.4742 37.8836 24.3481 37.523L24.2095 37.6971ZM27.8461 33.9016L28.4696 37.0704C28.4904 37.1993 28.5368 37.3228 28.606 37.4334C28.6752 37.544 28.7657 37.6394 28.8723 37.7141C28.979 37.7888 29.0994 37.8412 29.2265 37.8682C29.3537 37.8952 29.485 37.8962 29.6125 37.8712C29.7422 37.8461 29.8657 37.7957 29.9759 37.7226C30.0862 37.6495 30.1811 37.5552 30.2551 37.4453C30.3291 37.3353 30.3807 37.2119 30.4072 37.0818C30.4336 36.9518 30.4343 36.8177 30.4092 36.6874L29.7857 33.5186C29.77 33.4683 29.7649 33.4154 29.7706 33.363C29.7762 33.3106 29.7925 33.2598 29.8185 33.214C29.8446 33.1683 29.8797 33.1284 29.9217 33.0969C29.9637 33.0654 30.0118 33.043 30.0628 33.031C30.164 32.9968 30.2743 33.0031 30.371 33.0485C30.4677 33.0938 30.5434 33.1749 30.5823 33.2748L31.8292 36.2695C31.9356 36.5051 32.1278 36.6905 32.3663 36.7877C32.6047 36.8849 32.8712 36.8863 33.1107 36.7917C33.3563 36.6973 33.5553 36.5099 33.6649 36.2695C33.7163 36.1485 33.7428 36.018 33.7428 35.8864C33.7428 35.7547 33.7163 35.6245 33.6649 35.5034L32.418 32.5089C32.3798 32.4064 32.3799 32.2935 32.4181 32.1911C32.4563 32.0887 32.53 32.0036 32.6258 31.9516C32.7049 31.8895 32.8025 31.8558 32.9029 31.8558C33.0033 31.8558 33.1008 31.8895 33.1799 31.9516L34.9809 34.6329C35.0435 34.749 35.1306 34.85 35.2362 34.9287C35.3417 35.0074 35.463 35.062 35.5917 35.0885C35.7204 35.1151 35.8534 35.113 35.9812 35.0824C36.109 35.0518 36.2287 34.9935 36.3317 34.9115C36.4468 34.8493 36.5449 34.7596 36.6174 34.6503C36.6899 34.541 36.7345 34.4155 36.7473 34.2847C36.7979 34.1696 36.824 34.0449 36.824 33.919C36.824 33.7931 36.7979 33.6686 36.7473 33.5534L34.9463 30.8373C34.8782 30.7607 34.8404 30.6617 34.8404 30.5589C34.8404 30.4561 34.8782 30.3569 34.9463 30.2803C34.9819 30.2423 35.0249 30.2121 35.0725 30.1914C35.1202 30.1708 35.1715 30.1602 35.2234 30.1602C35.2752 30.1602 35.3267 30.1708 35.3743 30.1914C35.4219 30.2121 35.4649 30.2423 35.5005 30.2803L37.7863 32.5437C37.8771 32.6418 37.987 32.72 38.1092 32.7735C38.2314 32.8269 38.3631 32.8544 38.4964 32.8544C38.6296 32.8544 38.7614 32.8269 38.8835 32.7735C39.0057 32.72 39.1156 32.6418 39.2063 32.5437C39.2985 32.4529 39.3718 32.3445 39.4218 32.2249C39.4717 32.1053 39.4974 31.977 39.4974 31.8473C39.4974 31.7175 39.4717 31.5892 39.4218 31.4696C39.3718 31.35 39.2985 31.2416 39.2063 31.1508L36.9204 28.8527C36.8827 28.8169 36.8527 28.7737 36.8322 28.7258C36.8116 28.6779 36.801 28.6263 36.801 28.5741C36.801 28.5219 36.8116 28.4703 36.8322 28.4223C36.8527 28.3744 36.8827 28.3313 36.9204 28.2955C37.005 28.2305 37.1085 28.1954 37.2149 28.1954C37.3213 28.1954 37.4247 28.2305 37.5093 28.2955L40.1761 30.1062C40.397 30.2525 40.6664 30.3054 40.9258 30.2533C41.1852 30.2011 41.4137 30.0481 41.5616 29.8276C41.6487 29.5798 41.6487 29.3095 41.5616 29.0616C41.4902 28.8148 41.3451 28.596 41.1459 28.4349L38.4444 26.659C38.3798 26.574 38.3448 26.4699 38.3448 26.3629C38.3448 26.256 38.3798 26.1519 38.4444 26.0669C38.5235 26.0048 38.6211 25.971 38.7215 25.971C38.8219 25.971 38.9194 26.0048 38.9985 26.0669L41.9772 27.2857C42.0976 27.3375 42.2272 27.3642 42.3581 27.3642C42.4891 27.3642 42.6187 27.3375 42.7392 27.2857C42.8586 27.2423 42.9669 27.173 43.0567 27.0828C43.1465 26.9925 43.2155 26.8834 43.2587 26.7633C43.3101 26.6423 43.3367 26.512 43.3367 26.3804C43.3367 26.2487 43.3101 26.1185 43.2587 25.9974C43.2155 25.8774 43.1465 25.7682 43.0567 25.678C42.9669 25.5877 42.8586 25.5184 42.7392 25.475L39.7605 24.2215C39.6611 24.1824 39.5805 24.1062 39.5354 24.009C39.4902 23.9117 39.484 23.8008 39.518 23.6991C39.5496 23.5981 39.6155 23.5115 39.7041 23.4543C39.7927 23.397 39.8985 23.3728 40.003 23.3858L43.1548 24.0474C43.3989 24.1481 43.6726 24.1481 43.9167 24.0474C44.0267 23.9791 44.1207 23.8876 44.1924 23.7794C44.2641 23.6713 44.3119 23.549 44.3323 23.4207C44.417 23.1844 44.417 22.9257 44.3323 22.6894C44.1789 22.4592 43.9433 22.2971 43.6743 22.2367L40.5225 21.61C40.4123 21.61 40.3066 21.5659 40.2286 21.4875C40.1507 21.4092 40.1069 21.3029 40.1069 21.1921C40.1069 21.0813 40.1507 20.9751 40.2286 20.8967C40.3066 20.8183 40.4123 20.7743 40.5225 20.7743L43.7435 20.7743C44.0038 20.7653 44.2505 20.6547 44.4315 20.4663C44.6124 20.2779 44.7134 20.0262 44.7133 19.7644C44.7133 19.5058 44.6111 19.2578 44.4293 19.0749C44.2474 18.8921 44.0007 18.7895 43.7435 18.7895L40.5225 18.7895C40.4284 18.7625 40.3456 18.7054 40.2867 18.6269C40.2277 18.5484 40.1959 18.4526 40.1959 18.3542C40.1959 18.2559 40.2277 18.1601 40.2867 18.0815C40.3456 18.003 40.4284 17.946 40.5225 17.919L43.6743 17.2922C43.9333 17.2294 44.1646 17.0826 44.3323 16.8744C44.4168 16.6261 44.4168 16.3565 44.3323 16.1082C44.3079 15.9813 44.2586 15.8605 44.1872 15.7529C44.1159 15.6453 44.0239 15.553 43.9167 15.4815C43.6726 15.3809 43.3989 15.3809 43.1548 15.4815L40.003 16.1082C39.8985 16.1212 39.7927 16.097 39.7041 16.0398C39.6155 15.9825 39.5496 15.896 39.518 15.795C39.484 15.6932 39.4902 15.5821 39.5354 15.4849C39.5805 15.3876 39.6611 15.3117 39.7605 15.2726L42.7392 14.0539C42.9782 13.9437 43.1647 13.7436 43.2587 13.4967C43.3101 13.3756 43.3367 13.2453 43.3367 13.1137C43.3367 12.982 43.3101 12.8518 43.2587 12.7307C43.2095 12.6111 43.1371 12.5025 43.0458 12.4113C42.9545 12.3201 42.8461 12.2482 42.7268 12.1996C42.6075 12.151 42.4797 12.1267 42.351 12.1282C42.2223 12.1297 42.0953 12.1569 41.9772 12.2083L38.9985 13.427C38.9006 13.4683 38.7912 13.4737 38.6898 13.4418C38.5884 13.41 38.5015 13.343 38.4444 13.2529C38.3762 13.1763 38.3386 13.0773 38.3386 12.9745C38.3386 12.8717 38.3762 12.7725 38.4444 12.6959L41.1459 10.8851C41.3526 10.731 41.4996 10.5095 41.5616 10.2584C41.646 10.0101 41.646 9.74071 41.5616 9.49241C41.4081 9.27894 41.1801 9.13155 40.9232 9.07989C40.6663 9.02824 40.3994 9.07607 40.1761 9.21379L37.5093 11.0245C37.4707 11.0635 37.4248 11.0942 37.3743 11.1153C37.3238 11.1364 37.2696 11.1474 37.2149 11.1474C37.1602 11.1474 37.106 11.1364 37.0555 11.1153C37.005 11.0942 36.959 11.0635 36.9204 11.0245C36.8558 10.9395 36.8209 10.8355 36.8209 10.7285C36.8209 10.6215 36.8558 10.5174 36.9204 10.4324L39.2063 8.13435C39.2985 8.04357 39.3718 7.93514 39.4218 7.81556C39.4717 7.69598 39.4974 7.56761 39.4974 7.4379C39.4974 7.30818 39.4717 7.17981 39.4218 7.06023C39.3718 6.94065 39.2985 6.83222 39.2063 6.74144C39.0138 6.56029 38.7601 6.45963 38.4964 6.45963C38.2327 6.45963 37.9788 6.56029 37.7863 6.74144L35.5005 9.03972C35.4243 9.10825 35.3256 9.14599 35.2234 9.14599C35.1211 9.14599 35.0225 9.10825 34.9463 9.03972C34.8782 8.96312 34.8404 8.86388 34.8404 8.7611C34.8404 8.65832 34.8782 8.55908 34.9463 8.48247L36.7473 5.80142C36.8474 5.55598 36.8474 5.2807 36.7473 5.03526C36.7291 4.90616 36.6824 4.78287 36.6104 4.67439C36.5385 4.5659 36.4432 4.47502 36.3317 4.40851C36.2171 4.35766 36.0932 4.33136 35.968 4.33136C35.8428 4.33136 35.719 4.35766 35.6044 4.40851C35.4744 4.42141 35.3494 4.46635 35.2407 4.53922C35.132 4.61208 35.0428 4.71063 34.9809 4.82634L33.1799 7.5076C33.1008 7.56973 33.0033 7.60345 32.9029 7.60345C32.8025 7.60345 32.7049 7.56973 32.6258 7.5076C32.5327 7.46218 32.4598 7.38339 32.4213 7.28679C32.3829 7.19019 32.3817 7.08265 32.418 6.98521L33.6649 3.99068C33.7156 3.8673 33.7415 3.73506 33.7411 3.60154C33.7407 3.46802 33.714 3.33588 33.6624 3.21282C33.6109 3.08977 33.5356 2.97807 33.4409 2.88447C33.3462 2.79086 33.2339 2.71719 33.1107 2.66747C32.9904 2.617 32.8612 2.59141 32.7309 2.59224C32.6006 2.59307 32.4718 2.62036 32.3522 2.67236C32.2326 2.72437 32.1246 2.79999 32.0347 2.89488C31.9448 2.98977 31.875 3.10185 31.8292 3.22451L30.5823 6.21925C30.5434 6.31918 30.4677 6.40022 30.371 6.4456C30.2743 6.49097 30.164 6.49702 30.0628 6.46281C30.0118 6.45085 29.9637 6.42863 29.9217 6.39714C29.8797 6.36565 29.8446 6.32558 29.8185 6.27983C29.7925 6.23407 29.7762 6.18345 29.7706 6.13106C29.7649 6.07866 29.77 6.02578 29.7857 5.97548L30.4092 2.77183C30.4126 2.53527 30.3333 2.30507 30.1851 2.12128C30.0369 1.93748 29.8294 1.81195 29.5985 1.76635C29.3676 1.72075 29.128 1.75797 28.9217 1.87177C28.7154 1.98556 28.5555 2.16856 28.4696 2.38885L27.8461 5.55765C27.8378 5.61287 27.8185 5.66585 27.7894 5.71344C27.7603 5.76102 27.7221 5.80212 27.6769 5.83458C27.6317 5.86704 27.5804 5.89016 27.5262 5.90237C27.472 5.9146 27.416 5.91572 27.3613 5.90578C27.2572 5.89702 27.1602 5.8491 27.0896 5.77167C27.019 5.69424 26.9799 5.59299 26.9803 5.48795L26.9803 2.24964C27.0076 2.10378 27.0026 1.95362 26.9656 1.80992C26.9286 1.66623 26.8606 1.53248 26.7663 1.41823C26.6721 1.30399 26.5539 1.21207 26.4203 1.14896C26.2867 1.08584 26.1408 1.0531 25.9932 1.0531C25.8455 1.0531 25.6998 1.08584 25.5661 1.14896C25.4325 1.21207 25.3143 1.30399 25.2201 1.41823C25.1258 1.53248 25.0578 1.66623 25.0209 1.80992C24.9839 1.95362 24.9789 2.10378 25.0062 2.24964L25.0062 5.48795C25.0065 5.59299 24.9675 5.69424 24.8969 5.77167C24.8263 5.8491 24.7292 5.89702 24.6251 5.90578C24.5705 5.91572 24.5143 5.9146 24.4601 5.90237C24.4059 5.89016 24.3547 5.86704 24.3095 5.83458C24.2643 5.80212 24.226 5.76102 24.1969 5.71344C24.1679 5.66585 24.1487 5.61287 24.1403 5.55765L23.5168 2.38885C23.4923 2.25937 23.4419 2.13626 23.3687 2.02691C23.2955 1.91756 23.2011 1.82436 23.091 1.75275C22.981 1.68115 22.8576 1.63267 22.7284 1.61036C22.5992 1.58804 22.4667 1.59233 22.3392 1.62289C22.2123 1.64557 22.0914 1.69423 21.9841 1.76614C21.8768 1.83805 21.7855 1.93163 21.7158 2.04073C21.6312 2.27705 21.6312 2.5355 21.7158 2.77183L22.3392 5.97548C22.3615 6.07682 22.3455 6.18291 22.2943 6.27303C22.2431 6.36314 22.1603 6.43066 22.0622 6.46281C21.961 6.49702 21.8506 6.49097 21.7539 6.4456C21.6571 6.40022 21.5816 6.31918 21.5427 6.21925L20.2958 3.22451C20.2018 2.97759 20.0153 2.77765 19.7763 2.66747C19.6558 2.61575 19.5262 2.58905 19.3952 2.58905C19.2643 2.58905 19.1347 2.61575 19.0143 2.66747C18.7664 2.77635 18.5684 2.97524 18.4601 3.22451C18.4087 3.34559 18.3821 3.47604 18.3821 3.6077C18.3821 3.73936 18.4087 3.86961 18.4601 3.99068L19.707 6.98521C19.7433 7.08265 19.7421 7.19019 19.7037 7.28679C19.6652 7.38338 19.5922 7.46218 19.4991 7.5076C19.42 7.56973 19.3225 7.60345 19.2221 7.60345C19.1217 7.60345 19.0242 7.56973 18.9451 7.5076L17.144 4.82634C17.074 4.71833 16.9833 4.62537 16.8773 4.55282C16.7713 4.48026 16.6521 4.42953 16.5265 4.40362C16.4009 4.37772 16.2713 4.37718 16.1455 4.40192C16.0196 4.42666 15.9 4.47615 15.7933 4.54772C15.6768 4.6143 15.576 4.70525 15.4976 4.81444C15.4191 4.92363 15.3649 5.04855 15.3386 5.18063C15.3123 5.3127 15.3146 5.44885 15.3452 5.57997C15.3759 5.71109 15.4341 5.83414 15.5162 5.94063L17.2826 8.62189C17.3203 8.6577 17.3504 8.70087 17.3709 8.74877C17.3915 8.79667 17.402 8.84814 17.402 8.90031C17.402 8.95247 17.3915 9.00415 17.3709 9.05205C17.3504 9.09995 17.3203 9.14313 17.2826 9.17893C17.198 9.24388 17.0946 9.27903 16.9882 9.27903C16.8818 9.27903 16.7783 9.24388 16.6937 9.17893L14.4425 6.88086C14.25 6.69971 13.9962 6.59883 13.7325 6.59883C13.4688 6.59883 13.215 6.69971 13.0224 6.88086C12.8446 7.06862 12.7454 7.31781 12.7454 7.5771C12.7454 7.8364 12.8446 8.08579 13.0224 8.27356L15.3084 10.5718C15.373 10.6568 15.4079 10.7607 15.4079 10.8677C15.4079 10.9747 15.373 11.0787 15.3084 11.1637C15.2697 11.2027 15.2239 11.2336 15.1734 11.2547C15.1229 11.2758 15.0687 11.2866 15.014 11.2866C14.9593 11.2866 14.9051 11.2758 14.8546 11.2547C14.8041 11.2336 14.7582 11.2027 14.7196 11.1637L12.0527 9.35299C11.8062 9.26537 11.5372 9.26537 11.2907 9.35299C11.0409 9.41529 10.8206 9.563 10.6673 9.77082C10.5218 9.99289 10.4692 10.2637 10.5211 10.5245C10.573 10.7852 10.725 11.015 10.9443 11.1637L13.6113 12.9745C13.6907 13.0338 13.7465 13.1197 13.7686 13.2168C13.7906 13.3138 13.7775 13.4155 13.7316 13.5037C13.6856 13.5918 13.6098 13.6607 13.518 13.6977C13.4261 13.7347 13.324 13.7375 13.2302 13.7056L10.2517 12.4869C10.1313 12.4352 10.0016 12.4085 9.87066 12.4085C9.73971 12.4085 9.61016 12.4352 9.48973 12.4869C9.24413 12.5814 9.04515 12.7688 8.93556 13.0091C8.86615 13.2597 8.86615 13.5247 8.93556 13.7753C9.04386 14.0246 9.24179 14.2234 9.48973 14.3323L12.4683 15.5512C12.5677 15.5903 12.6483 15.6663 12.6934 15.7635C12.7385 15.8607 12.7448 15.9717 12.7107 16.0734C12.6791 16.1744 12.6133 16.2612 12.5247 16.3184C12.4361 16.3757 12.3304 16.3999 12.2259 16.3868L9.07413 15.7601C8.94661 15.7295 8.81416 15.7252 8.68496 15.7476C8.55575 15.7699 8.43238 15.8183 8.32231 15.89C8.21224 15.9616 8.11783 16.0548 8.04464 16.1641C7.97145 16.2735 7.92108 16.3966 7.89656 16.5261C7.84486 16.7843 7.89552 17.0528 8.03788 17.2739C8.18023 17.4951 8.40301 17.6516 8.65853 17.71L11.8449 18.3368C11.939 18.3638 12.0218 18.4208 12.0807 18.4994C12.1396 18.5779 12.1715 18.6737 12.1715 18.7721C12.1715 18.8704 12.1396 18.9662 12.0807 19.0447C12.0218 19.1233 11.939 19.1803 11.8449 19.2073L8.62386 19.2073C8.49521 19.2024 8.36691 19.2242 8.24705 19.2715C8.1272 19.3188 8.01836 19.3904 7.92732 19.4819C7.83628 19.5734 7.76505 19.683 7.71804 19.8035C7.67102 19.924 7.64923 20.0528 7.65409 20.1822C7.64944 20.3131 7.67107 20.4437 7.71772 20.566C7.76437 20.6883 7.83511 20.8001 7.92563 20.8944C8.01615 20.9886 8.12454 21.0636 8.24452 21.1148C8.36449 21.1659 8.49354 21.1922 8.62386 21.1921L11.8449 21.1921C11.9551 21.1921 12.0609 21.2362 12.1388 21.3145C12.2168 21.3929 12.2605 21.4991 12.2605 21.61C12.2605 21.7208 12.2168 21.827 12.1388 21.9054C12.0609 21.9837 11.9551 22.0278 11.8449 22.0278L8.65853 22.6545C8.40301 22.7129 8.18023 22.8695 8.03788 23.0906C7.89552 23.3118 7.84486 23.5803 7.89656 23.8385C7.91702 23.9669 7.96468 24.0891 8.0364 24.1973C8.10812 24.3054 8.20219 24.3969 8.31216 24.4653C8.43259 24.517 8.56214 24.5437 8.69309 24.5437C8.82405 24.5437 8.9537 24.517 9.07413 24.4653L12.2259 23.8037C12.3304 23.7906 12.4361 23.8148 12.5247 23.8721C12.6133 23.9294 12.6791 24.0159 12.7107 24.1169C12.6354 24.1349 12.5566 24.1316 12.4832 24.107C12.4097 24.0823 12.3446 24.0376 12.2951 23.9777L9.3166 25.2312C9.19196 25.2724 9.07769 25.3406 8.98196 25.4308C8.88624 25.521 8.81137 25.6312 8.76243 25.7536C8.69302 26.0042 8.69302 26.269 8.76243 26.5196C8.81128 26.6435 8.88486 26.7563 8.97869 26.8505C9.07252 26.9447 9.18458 27.0185 9.30793 27.0675C9.43129 27.1164 9.5633 27.1394 9.69584 27.1351C9.82838 27.1307 9.95858 27.099 10.0785 27.042L13.0571 25.8233C13.1276 25.7572 13.2205 25.7205 13.3169 25.7205C13.4133 25.7205 13.5061 25.7572 13.5766 25.8233C13.6473 25.9056 13.6862 26.0105 13.6862 26.1192C13.6862 26.2279 13.6473 26.333 13.5766 26.4152L10.9098 28.1911C10.6905 28.3398 10.5383 28.5694 10.4865 28.8302C10.4346 29.091 10.4871 29.3618 10.6326 29.5838C10.7805 29.8043 11.009 29.9574 11.2684 30.0095C11.5278 30.0617 11.7972 30.0088 12.0181 29.8624L14.685 28.0517C14.7695 27.9868 14.8729 27.9516 14.9793 27.9516C15.0857 27.9516 15.1891 27.9868 15.2737 28.0517C15.3418 28.1283 15.3796 28.2275 15.3796 28.3303C15.3796 28.4331 15.3418 28.5323 15.2737 28.6089L12.9879 30.907C12.813 31.0967 12.7142 31.3449 12.7107 31.6035C12.7089 31.7322 12.7324 31.8599 12.78 31.9794C12.8275 32.099 12.8983 32.208 12.9879 32.2999C13.1804 32.4811 13.4342 32.5817 13.6978 32.5817C13.9615 32.5817 14.2153 32.4811 14.4078 32.2999L16.6592 30.0365C16.6978 29.9976 16.7436 29.9666 16.7941 29.9455C16.8447 29.9245 16.8988 29.9137 16.9535 29.9137C17.0082 29.9137 17.0624 29.9245 17.1129 29.9455C17.1634 29.9666 17.2093 29.9976 17.2479 30.0365C17.2856 30.0723 17.3157 30.1155 17.3363 30.1634C17.3568 30.2113 17.3674 30.263 17.3674 30.3151C17.3674 30.3673 17.3568 30.419 17.3363 30.4669C17.3157 30.5148 17.2856 30.558 17.2479 30.5938L15.4816 33.3097C15.3392 33.5267 15.2884 33.7916 15.3404 34.0463C15.3923 34.301 15.5428 34.5246 15.7586 34.6677C15.9745 34.8109 16.2381 34.8619 16.4914 34.8097C16.7447 34.7574 16.9671 34.6061 17.1094 34.3891L18.9104 31.7078C18.9895 31.6457 19.087 31.612 19.1874 31.612C19.2878 31.612 19.3854 31.6457 19.4646 31.7078C19.5603 31.7598 19.6341 31.8449 19.6723 31.9474C19.7105 32.0498 19.7105 32.1626 19.6724 32.2651L18.4255 35.2596C18.374 35.3807 18.3476 35.5109 18.3476 35.6426C18.3476 35.7742 18.374 35.9047 18.4255 36.0258C18.5351 36.2661 18.734 36.4535 18.9796 36.548C19.1001 36.5997 19.2297 36.6264 19.3607 36.6264C19.4916 36.6264 19.6212 36.5997 19.7416 36.548C19.9762 36.4491 20.1628 36.2616 20.2611 36.0258L21.508 33.031C21.5469 32.9311 21.6226 32.8501 21.7193 32.8047C21.816 32.7593 21.9264 32.7533 22.0275 32.7875C22.1257 32.8196 22.2084 32.8872 22.2596 32.9773C22.3108 33.0674 22.3269 33.1735 22.3047 33.2748L21.6811 36.4436C21.5967 36.6919 21.5967 36.9613 21.6811 37.2096C21.8414 37.4098 22.0591 37.5557 22.3047 37.6274C22.4251 37.6791 22.5546 37.7058 22.6856 37.7058C22.8165 37.7058 22.9461 37.6791 23.0665 37.6274C23.1765 37.559 23.2706 37.4678 23.3423 37.3596C23.414 37.2515 23.4618 37.129 23.4822 37.0006L24.1056 33.8321C24.1304 33.7246 24.1933 33.6299 24.2826 33.5658C24.3718 33.5016 24.4813 33.4724 24.5905 33.4837C24.6918 33.4994 24.7848 33.5493 24.8541 33.6253C24.9233 33.7012 24.9648 33.7987 24.9715 33.9016L24.9715 37.1401C24.9442 37.2859 24.9492 37.4359 24.9862 37.5796C25.0232 37.7233 25.0912 37.857 25.1854 37.9713C25.2797 38.0855 25.3979 38.1774 25.5315 38.2405C25.6651 38.3037 25.811 38.3364 25.9586 38.3364C26.1062 38.3364 26.252 38.3037 26.3856 38.2405C26.5192 38.1774 26.6374 38.0855 26.7317 37.9713C26.8259 37.857 26.8939 37.7233 26.9309 37.5796C26.9679 37.4359 26.973 37.2859 26.9457 37.1401L26.9457 33.9016C26.9524 33.7987 26.9937 33.7012 27.063 33.6253C27.1323 33.5493 27.2253 33.4994 27.3266 33.4837C27.4499 33.4736 27.5723 33.5112 27.6689 33.5889C27.7655 33.6666 27.8289 33.7784 27.8461 33.9016Z" fill="#531036"/>
<path d="M13.9574 23.2117C13.3203 19.4939 13.7281 15.6709 15.1349 12.1734C19.1872 14.5412 20.3647 21.6448 20.3647 21.6448C21.4038 11.1986 26.4258 7.36818 27.2917 6.74141C28.2615 7.36818 33.3181 11.0941 34.2186 21.6448C34.2186 21.6448 35.3616 14.6805 39.4485 12.1734C40.833 15.6769 41.2286 19.4967 40.5915 23.2117C40.5915 23.2117 42.6349 14.3671 53.6488 16.909C52.331 17.5245 51.1801 18.4506 50.2938 19.6083C49.4075 20.7661 48.8119 22.1215 48.5575 23.5599C46.4448 31.9168 40.1066 36.7917 27.4302 36.9658L26.6683 36.9658C13.9573 36.7917 7.65382 31.9168 5.50646 23.5599C5.26109 22.1229 4.67285 20.7673 3.79216 19.609C2.91148 18.4506 1.76452 17.5241 0.449707 16.909C11.9485 14.3671 13.9574 23.2117 13.9574 23.2117Z" fill="#873B6E"/>
<path d="M10.0786 31.5686C7.94668 29.3517 6.45075 26.5966 5.74928 23.5947C5.52232 22.1835 4.95993 20.8482 4.10971 19.7024C3.25949 18.5567 2.14668 17.6343 0.86587 17.0135L2.43372e-07 16.7001L0.86587 16.526C8.79724 14.6805 12.1914 18.7198 13.5076 21.2269C13.2378 18.0502 13.7123 14.8541 14.8929 11.895L14.8929 11.6512L15.1354 11.6512C17.7428 13.6689 19.5186 16.5823 20.1228 19.834C20.2754 17.2108 20.9702 14.6483 22.1629 12.3101C23.3555 9.97187 25.0199 7.90923 27.0498 6.25384L27.2229 6.25384L27.4654 6.25384C29.4952 7.90923 31.1596 9.97187 32.3523 12.3101C33.5449 14.6483 34.2397 17.2108 34.3923 19.834C35.0207 16.5831 36.8061 13.674 39.4143 11.6512L39.6568 11.6512L39.6568 11.895C40.8792 14.8429 41.3667 18.0464 41.0768 21.2269C42.3583 18.7198 45.7526 14.6805 53.6839 16.526L54.5498 16.7001L53.7185 17.0135C52.4482 17.6167 51.3394 18.5158 50.4841 19.6361C49.6287 20.7565 49.0515 22.0657 48.8004 23.4553C46.5492 32.4042 39.6222 36.8614 27.6732 37.1052L26.4263 37.1052C20.4772 37.4011 14.637 35.4231 10.0786 31.5686ZM3.49804 18.3367C4.84642 19.7869 5.80072 21.5616 6.26889 23.4901C8.48552 32.2301 15.3086 36.5479 27.0498 36.722L27.2921 36.722L27.7771 36.722C39.6222 36.722 46.4452 32.2301 48.558 23.4901C48.8229 22.1519 49.3594 20.883 50.1341 19.7626C50.9088 18.6422 51.905 17.6945 53.0604 16.9787C43.0856 15.0984 41.1807 22.933 41.0768 23.2812L40.592 23.2812C41.1721 19.6991 40.8139 16.0268 39.5529 12.6261C36.9644 15.0484 35.2574 18.2725 34.704 21.784L34.3923 23.6991L34.2191 21.784C33.1801 11.5467 28.4005 7.85577 27.2921 7.08972C26.2185 7.82095 21.4042 11.5467 20.3652 21.784L20.1574 23.6991L19.8457 21.784C19.3079 18.2672 17.5983 15.0383 14.9968 12.6261C13.7475 16.0299 13.4013 19.7021 13.9924 23.2812L13.4729 23.2812C13.4729 22.933 11.4641 15.0984 1.48927 16.9787C2.21537 17.3406 2.89076 17.7972 3.49804 18.3367Z" fill="#541136"/>
<path d="M40.8689 31.3944C40.4186 31.7774 39.8991 32.1256 39.4142 32.4738C38.9293 32.822 38.3752 33.1355 37.8557 33.4141C36.7424 34.0046 35.5843 34.5052 34.3922 34.9113C29.8143 36.3509 24.9084 36.3509 20.3305 34.9113C19.1384 34.5052 17.9802 34.0046 16.867 33.4141C16.359 33.1355 15.8394 32.822 15.3084 32.4738C14.8235 32.1256 14.304 31.7774 13.8538 31.3944C11.9601 29.854 10.3635 27.9774 9.14339 25.8578C8.26684 24.3105 7.61378 22.6457 7.20385 20.9133C7.20129 20.8475 7.21948 20.7824 7.25575 20.7276C7.29202 20.6727 7.34448 20.6308 7.40584 20.6077C7.4672 20.5846 7.53425 20.5814 7.59747 20.5988C7.66068 20.6161 7.71689 20.6531 7.75802 20.7044C8.55595 22.1915 9.47095 23.6122 10.4942 24.9526C11.8325 26.7559 13.3919 28.3819 15.1353 29.7926C16.0044 30.5013 16.9183 31.1526 17.8713 31.7425C18.3216 32.0559 18.8065 32.3345 19.2914 32.613L20.0533 33.0309L20.8153 33.4141C22.8901 34.4191 25.0309 35.2799 27.2228 35.9908C29.4146 35.2799 31.5554 34.4191 33.6302 33.4141L34.3922 33.0309L35.1542 32.613C35.639 32.3345 36.1239 32.0559 36.6088 31.7425C37.5449 31.144 38.4469 30.493 39.3103 29.7926C41.0536 28.3819 42.6131 26.7559 43.9514 24.9526C44.9866 23.6207 45.9022 22.199 46.6875 20.7044C46.7286 20.6531 46.7848 20.6162 46.8481 20.5988C46.9113 20.5814 46.9783 20.5846 47.0397 20.6077C47.101 20.6308 47.1536 20.6727 47.1899 20.7276C47.2261 20.7824 47.2442 20.8475 47.2417 20.9133C46.8317 22.6457 46.1787 24.3105 45.3021 25.8578C44.1646 27.9543 42.6632 29.8295 40.8689 31.3944Z" fill="#F8CA95"/>
<path d="M12.2952 30.2103C11.0311 28.951 9.94707 27.5214 9.07416 25.9623C8.16106 24.4041 7.49499 22.7124 7.09995 20.9481C7.06722 20.8189 7.08481 20.6821 7.1492 20.5656C7.2136 20.449 7.31994 20.3617 7.44632 20.3214C7.56647 20.272 7.7006 20.2697 7.82239 20.3148C7.94418 20.3599 8.04481 20.4492 8.10439 20.5651C8.9059 22.0501 9.82061 23.4703 10.8405 24.8132C12.1684 26.5934 13.7163 28.1964 15.4469 29.5836C16.2875 30.2979 17.1788 30.9496 18.1138 31.5335C18.3984 31.7334 18.6998 31.9082 19.0143 32.0559C19.191 32.1844 19.3762 32.3006 19.5685 32.404L20.2958 32.7872C20.539 32.9355 20.7938 33.0636 21.0578 33.1702C23.1094 34.1369 25.214 34.9855 27.3613 35.7121C29.5109 34.9915 31.6159 34.1428 33.6649 33.1702C33.9288 33.0636 34.1837 32.9355 34.4269 32.7872L35.1542 32.404C35.3465 32.3006 35.5316 32.1844 35.7083 32.0559C36.0088 31.9025 36.2981 31.7279 36.5742 31.5335C37.526 30.9585 38.4295 30.3064 39.2757 29.5836C41.0089 28.1879 42.5672 26.5861 43.9168 24.8132C45.0233 23.4488 46.0304 22.0058 46.93 20.4954C46.996 20.3768 47.1029 20.2866 47.2305 20.2417C47.358 20.1968 47.4975 20.2004 47.6227 20.2516C47.7407 20.3036 47.8385 20.393 47.901 20.5063C47.9636 20.6195 47.9874 20.7502 47.969 20.8784C47.5445 22.6388 46.8678 24.3278 45.9602 25.8926C44.7462 28.0467 43.136 29.9492 41.2152 31.4987C40.8166 31.8341 40.4003 32.148 39.9683 32.4389L39.4835 32.7872C39.0333 33.0658 38.6176 33.3443 38.1327 33.588C37.0251 34.1904 35.866 34.6915 34.6692 35.0853C32.4395 35.8442 30.0959 36.2094 27.7423 36.1647C25.3886 36.2094 23.045 35.8442 20.8153 35.0853C19.6185 34.6915 18.4594 34.1904 17.3518 33.588C16.8669 33.3443 16.4514 33.0658 16.0011 32.7872L15.5162 32.4389C15.0842 32.148 14.6681 31.8341 14.2694 31.4987C13.5848 31.1118 12.9254 30.6815 12.2952 30.2103ZM7.65412 20.8089C8.06067 22.5203 8.7141 24.1625 9.59366 25.6837C10.7823 27.7851 12.3572 29.6403 14.2347 31.1505C14.6157 31.4639 15.0313 31.7774 15.4469 32.0559L15.8972 32.3692C16.3128 32.6478 16.7631 32.9265 17.2134 33.1702C18.2597 33.7409 19.348 34.2298 20.4689 34.6326C22.23 35.2115 24.0573 35.5625 25.9066 35.6772C24.1914 35.0855 22.5142 34.3879 20.8846 33.588C20.6239 33.4744 20.3696 33.3465 20.1227 33.2051L19.3953 32.8219L18.8412 32.4738C18.5295 32.2996 18.2177 32.1256 17.906 31.9167C16.954 31.3253 16.0401 30.6738 15.1698 29.9665C13.4323 28.5252 11.8637 26.8899 10.4942 25.0918C9.46267 23.7255 8.53632 22.2821 7.72335 20.774L7.65412 20.8089ZM47.1378 20.8089C46.3248 22.3169 45.3986 23.7604 44.367 25.1266C42.9975 26.9247 41.4288 28.5601 39.6913 30.0014C38.8071 30.7168 37.8818 31.3796 36.9205 31.9862L36.02 32.5086C35.839 32.6124 35.6655 32.7287 35.5005 32.8567L34.7386 33.2397C34.4954 33.388 34.2405 33.5163 33.9766 33.6229C32.3588 34.4225 30.6931 35.1202 28.9892 35.7121C30.8268 35.5941 32.6421 35.2431 34.3922 34.6675C35.5131 34.2647 36.6016 33.7758 37.6479 33.2051C38.0981 32.9613 38.5484 32.6826 38.964 32.404L39.4142 32.0908C39.8298 31.8122 40.2454 31.4988 40.6264 31.1854C42.4856 29.6562 44.0574 27.8047 45.2675 25.7185C46.1223 24.1893 46.7634 22.5488 47.1724 20.8435L47.1378 20.8089Z" fill="#531036"/>
<path d="M27.5001 34.4239C25.5578 34.0655 23.722 33.2678 22.1316 32.091C20.5072 30.889 19.1506 29.3588 18.1486 27.599C17.1589 25.8714 16.4679 23.9877 16.1052 22.0277C15.8521 20.6035 15.7707 19.1538 15.8627 17.71C15.884 17.6485 15.9238 17.5953 15.9766 17.5576C16.0293 17.5199 16.0924 17.4996 16.1571 17.4996C16.2218 17.4996 16.285 17.5199 16.3377 17.5576C16.3905 17.5953 16.4303 17.6485 16.4516 17.71C16.7979 19.068 17.2134 20.3912 17.6637 21.6796C18.2651 23.4035 19.0186 25.0699 19.915 26.6589C20.8171 28.2183 21.9109 29.6572 23.1707 30.9418C24.5092 32.2282 25.9579 33.3935 27.5001 34.4239C29.0422 33.3935 30.491 32.2282 31.8294 30.9418C33.0892 29.6572 34.1829 28.2183 35.085 26.6589C35.9814 25.0699 36.7349 23.4035 37.3363 21.6796C37.7866 20.3912 38.2021 19.068 38.5485 17.71C38.5697 17.6485 38.6096 17.5953 38.6623 17.5576C38.7151 17.5199 38.7782 17.4996 38.8429 17.4996C38.9077 17.4996 38.9707 17.5199 39.0235 17.5576C39.0762 17.5953 39.116 17.6485 39.1373 17.71C39.2294 19.1538 39.1479 20.6035 38.8948 22.0277C38.5321 23.9877 37.8412 25.8714 36.8514 27.599C35.8495 29.3588 34.4928 30.889 32.8684 32.091C31.278 33.2678 29.4423 34.0655 27.5001 34.4239Z" fill="#F8CA95"/>
<path d="M20.3303 30.9418C19.4023 30.0055 18.599 28.952 17.9405 27.8079C16.9117 26.0581 16.2075 24.1349 15.8624 22.1321C15.5976 20.6858 15.5161 19.2118 15.62 17.7449C15.6505 17.625 15.7199 17.5187 15.8171 17.4429C15.9143 17.367 16.0337 17.3258 16.1568 17.3258C16.2798 17.3258 16.3994 17.367 16.4966 17.4429C16.5938 17.5187 16.6631 17.625 16.6936 17.7449C17.0746 19.1725 17.4556 20.4607 17.9059 21.7143C18.4941 23.4155 19.2361 25.059 20.1225 26.6241C21.0299 28.1602 22.1107 29.5855 23.3436 30.8721C24.6305 32.1467 26.0207 33.3114 27.4998 34.3542C28.9857 33.3204 30.3765 32.1551 31.6559 30.8721C32.8887 29.5855 33.9696 28.1602 34.8769 26.6241C35.771 25.0629 36.5133 23.4186 37.0936 21.7143C37.5438 20.4607 37.9248 19.1725 38.3058 17.7449C38.3441 17.6195 38.4226 17.5104 38.5292 17.4348C38.6357 17.3592 38.7642 17.3213 38.8945 17.327C39.0234 17.3432 39.1427 17.4041 39.2313 17.4996C39.3199 17.5951 39.3724 17.7188 39.3795 17.8492C39.5009 19.3159 39.4193 20.7925 39.137 22.2367C38.7919 24.2395 38.0878 26.1627 37.0589 27.9125C36.0422 29.7025 34.6614 31.2568 33.0067 32.474C31.41 33.6691 29.5614 34.4792 27.6037 34.8417L26.149 35.0507L26.9109 34.7025C24.5044 34.1372 22.2921 32.9349 20.5035 31.2205L20.3303 30.9418ZM16.2088 17.7449C16.0925 19.1755 16.1624 20.6153 16.4166 22.0277C16.7715 23.9679 17.4632 25.8303 18.46 27.5295C19.4487 29.2377 20.7677 30.7295 22.3391 31.9169C23.5667 32.8155 24.9369 33.4982 26.3914 33.9364C25.1622 33.0801 24.0039 32.1252 22.928 31.081C21.6613 29.7683 20.5565 28.3069 19.6376 26.7285C18.7073 25.1399 17.9413 23.4598 17.3517 21.7143C16.9014 20.4607 16.5204 19.1725 16.1395 17.7449L16.2088 17.7449ZM38.86 17.7449C38.479 19.1725 38.098 20.4607 37.6477 21.7143C37.0581 23.4598 36.2921 25.1399 35.3618 26.7285C34.4429 28.3069 33.3381 29.7683 32.0715 31.081C30.9955 32.1252 29.8373 33.0801 28.608 33.9364C30.0626 33.4982 31.4328 32.8155 32.6603 31.9169C34.2476 30.7187 35.5688 29.2005 36.5394 27.4598C37.5362 25.7606 38.2279 23.8982 38.5828 21.958C38.8303 20.5449 38.9117 19.1074 38.8253 17.6752L38.86 17.7449Z" fill="#531036"/>
<path d="M25.1444 21.6099C25.0926 22.5145 25.0926 23.4212 25.1444 24.3258C25.1444 25.2311 25.4215 26.1366 25.5947 27.0419C26.0594 28.8952 26.6614 30.711 27.3957 32.4739C25.8949 31.1007 24.7126 29.4128 23.9322 27.5295C23.5497 26.5879 23.271 25.607 23.101 24.6044C22.9342 23.6034 22.8531 22.5899 22.8585 21.575C22.8895 19.5429 23.3007 17.5347 24.0708 15.6555C24.6372 14.1344 25.4571 12.7214 26.4953 11.4769C26.6684 11.268 26.9801 11.4769 26.8762 11.6859C26.3583 13.1318 25.9303 14.6088 25.5947 16.1082C25.2584 17.9218 25.1076 19.7654 25.1444 21.6099Z" fill="#F8CA95"/>
<path d="M27.015 32.3348C25.6887 30.988 24.641 29.3902 23.9325 27.6339C23.5551 26.6666 23.2766 25.6633 23.1013 24.6394C22.9216 23.6161 22.829 22.5793 22.8242 21.5403C22.8913 19.4863 23.3132 17.4598 24.071 15.5512C24.6806 14.015 25.5217 12.582 26.5647 11.303C26.6493 11.238 26.7527 11.2029 26.8591 11.2029C26.9655 11.2029 27.069 11.238 27.1536 11.303C27.252 11.3612 27.3268 11.4527 27.3649 11.561C27.4029 11.6693 27.4016 11.7876 27.3614 11.8951C26.837 13.3271 26.4089 14.7927 26.0799 16.2823C25.6645 18.0644 25.4323 19.8846 25.3872 21.7143L25.3872 24.3956C25.3872 25.1965 25.6296 26.0671 25.8374 27.0769C26.2964 28.9205 26.8985 30.7251 27.6384 32.474L28.054 33.5186L27.2228 32.7527L27.015 32.3348ZM26.8072 11.7905C25.4011 13.57 24.3869 15.6293 23.8316 17.8323C23.2763 20.0353 23.1927 22.3317 23.5862 24.5697C23.7611 25.5485 24.0397 26.5058 24.4174 27.425C24.994 28.8518 25.7886 30.1794 26.7725 31.3597C26.2513 29.9709 25.8119 28.5525 25.4564 27.1117C25.244 26.2062 25.0937 25.287 25.0062 24.3608C24.9562 23.4329 24.9562 22.503 25.0062 21.5751C25.0684 19.7237 25.3002 17.882 25.6989 16.0734C25.9067 14.6806 26.1491 13.253 26.8072 11.7905Z" fill="#531036"/>
<path d="M27.5 32.4739C28.2343 30.711 28.8363 28.8952 29.301 27.0419C29.5018 26.1458 29.6522 25.2389 29.7512 24.3258C29.8031 23.4212 29.8031 22.5145 29.7512 21.6099C29.7084 19.757 29.4762 17.9134 29.0585 16.1082C28.7418 14.7063 28.3487 13.323 27.8809 11.9645C27.8665 11.907 27.8707 11.8464 27.8929 11.7915C27.9151 11.7366 27.9542 11.6902 28.0044 11.6591C28.0546 11.628 28.1133 11.6139 28.1721 11.6187C28.2309 11.6235 28.2867 11.647 28.3312 11.6859C29.2858 12.881 30.0456 14.2209 30.5824 15.6555C31.3525 17.5347 31.7637 19.5429 31.7947 21.575C31.8172 22.5905 31.736 23.6056 31.5522 24.6044C31.3822 25.607 31.1035 26.5879 30.721 27.5295C30.0115 29.3903 28.9132 31.0764 27.5 32.4739Z" fill="#F8CA95"/>
<path d="M26.8419 33.4141L27.2575 32.3693C27.9974 30.6203 28.5995 28.8158 29.0585 26.9721C29.2663 25.9623 29.4049 25.0919 29.5088 24.2911L29.5088 21.6098C29.4636 19.78 29.2315 17.9598 28.816 16.1778C28.4946 14.7771 28.1016 13.394 27.6385 12.0341C27.5911 11.9183 27.5898 11.7886 27.635 11.6719C27.6801 11.5553 27.7682 11.4605 27.8809 11.4073C27.9705 11.3241 28.088 11.2779 28.21 11.2779C28.3319 11.2779 28.4494 11.3241 28.539 11.4073C29.493 12.6216 30.2633 13.9709 30.8249 15.4116C31.5827 17.3202 32.0046 19.3469 32.0717 21.4009C32.1208 23.4869 31.7436 25.5609 30.9635 27.4945C30.1792 29.3958 28.9981 31.1057 27.5 32.5087L26.8419 33.4141ZM28.2619 11.86C28.7121 13.3225 29.1278 14.6804 29.4395 16.0732C29.8519 17.8794 30.0839 19.7224 30.1322 21.5749C30.1814 22.5028 30.1814 23.4327 30.1322 24.3605C30.0447 25.2868 29.8943 26.206 29.6819 27.1115C29.3264 28.5523 28.887 29.9707 28.3659 31.3595C29.357 30.1843 30.1523 28.8555 30.721 27.4248C31.0987 26.5056 31.3773 25.5483 31.5522 24.5695C31.7203 23.5804 31.8014 22.5783 31.7947 21.5749C31.7514 19.5701 31.3527 17.5891 30.6171 15.7251C30.0146 14.3329 29.2218 13.0321 28.2619 11.86Z" fill="#531036"/>
<path d="M47.7267 52.5656C47.6436 52.2015 47.4249 51.8831 47.1158 51.6759C46.8067 51.4687 46.4305 51.3884 46.0642 51.4513L42.8778 52.078L45.8564 50.8592C46.03 50.7869 46.1875 50.6809 46.3199 50.547C46.4523 50.413 46.5569 50.2539 46.6278 50.079C46.6987 49.9041 46.7344 49.7169 46.7328 49.5281C46.7311 49.3393 46.6923 49.1525 46.6184 48.9789C46.5501 48.8057 46.4479 48.648 46.3179 48.5152C46.1879 48.3824 46.0328 48.2772 45.8616 48.2057C45.6905 48.1343 45.5068 48.0983 45.3215 48.0995C45.1362 48.1007 44.953 48.1393 44.7828 48.213L41.8041 49.4665L44.4711 47.6557C44.7822 47.4431 44.9992 47.1177 45.0767 46.7476C45.1542 46.3775 45.0861 45.9916 44.8867 45.6709C44.7822 45.5153 44.6482 45.3819 44.4924 45.2784C44.3366 45.1749 44.162 45.1033 43.9786 45.0678C43.7952 45.0322 43.6067 45.0334 43.4237 45.0712C43.2408 45.1089 43.067 45.1825 42.9125 45.2879L40.2109 47.0638L42.4969 44.8004C42.6288 44.6678 42.7334 44.5103 42.8048 44.3371C42.8761 44.1638 42.9129 43.9782 42.9129 43.7907C42.9129 43.6031 42.8761 43.4175 42.8048 43.2443C42.7334 43.071 42.6288 42.9136 42.4969 42.7809C42.365 42.6483 42.2084 42.5431 42.036 42.4713C41.8637 42.3995 41.679 42.3627 41.4924 42.3627C41.3059 42.3627 41.1212 42.3995 40.9488 42.4713C40.7765 42.5431 40.62 42.6483 40.4881 42.7809L38.2022 45.0442L40.0031 42.3631C40.108 42.2077 40.1813 42.0329 40.2189 41.849C40.2565 41.6651 40.2576 41.4755 40.2223 41.2911C40.1869 41.1068 40.1156 40.9313 40.0127 40.7747C39.9097 40.618 39.777 40.4833 39.6222 40.3783C39.3033 40.1778 38.9194 40.1093 38.5513 40.1872C38.1832 40.2652 37.8595 40.4834 37.648 40.7961L35.8469 43.4772L37.0938 40.4827C37.1677 40.309 37.2066 40.1225 37.2082 39.9337C37.2098 39.7449 37.1741 39.5575 37.1032 39.3826C37.0324 39.2077 36.9278 39.0488 36.7953 38.9148C36.6629 38.7809 36.5054 38.6747 36.3319 38.6024C35.9778 38.464 35.584 38.4702 35.2345 38.6198C34.885 38.7695 34.6076 39.0506 34.4616 39.4032L33.2493 42.3978L33.8728 39.1943C33.9463 38.8203 33.8689 38.4322 33.6578 38.1155C33.4467 37.7988 33.1192 37.5794 32.7472 37.5056C32.3751 37.4317 31.9891 37.5095 31.6741 37.7217C31.3591 37.9339 31.1409 38.2633 31.0674 38.6373L30.4439 41.8407L30.4439 38.6024C30.4439 38.2238 30.2943 37.8606 30.028 37.5929C29.7617 37.3252 29.4005 37.1746 29.0239 37.1746C28.6473 37.1746 28.2862 37.3252 28.0199 37.5929C27.7535 37.8606 27.6039 38.2238 27.6039 38.6024L27.6039 41.8407L26.9804 38.6373C26.9613 38.4386 26.9009 38.2461 26.8032 38.0724C26.7055 37.8986 26.5727 37.7473 26.4133 37.6284C26.2538 37.5095 26.0713 37.4255 25.8776 37.3819C25.6839 37.3382 25.4832 37.3359 25.2885 37.3751C25.0939 37.4142 24.9096 37.4939 24.7475 37.6091C24.5854 37.7243 24.4491 37.8725 24.3474 38.0439C24.2457 38.2153 24.1809 38.4062 24.1572 38.6043C24.1334 38.8025 24.1514 39.0035 24.2097 39.1943L24.8331 42.3978L23.5863 39.4032C23.4403 39.059 23.1686 38.7841 22.8272 38.6351C22.4857 38.4862 22.1004 38.4744 21.7506 38.6024C21.4 38.7492 21.1202 39.0281 20.9713 39.3794C20.8225 39.7308 20.8163 40.1267 20.954 40.4827L22.2008 43.4772L20.3998 40.7961C20.1884 40.4834 19.8646 40.2652 19.4966 40.1872C19.1285 40.1093 18.7446 40.1778 18.4256 40.3783C18.1202 40.5962 17.9102 40.9242 17.8392 41.2939C17.7683 41.6636 17.8419 42.0466 18.0447 42.3631L19.8457 45.0442L17.5598 42.7809C17.2934 42.5131 16.9322 42.3627 16.5554 42.3627C16.1787 42.3627 15.8174 42.5131 15.551 42.7809C15.2846 43.0488 15.135 43.4119 15.135 43.7907C15.135 44.1694 15.2846 44.5326 15.551 44.8004L17.8369 47.0638L15.1354 45.2879C14.9852 45.1786 14.8142 45.1014 14.6331 45.0614C14.452 45.0213 14.2647 45.0193 14.0828 45.0552C13.9008 45.0911 13.7281 45.1644 13.5755 45.2703C13.4229 45.3762 13.2937 45.5126 13.1958 45.6709C13.091 45.8263 13.0177 46.0011 12.9801 46.185C12.9425 46.3689 12.9413 46.5585 12.9767 46.7429C13.0121 46.9273 13.0834 47.1027 13.1863 47.2593C13.2893 47.416 13.422 47.5507 13.5768 47.6557L16.2437 49.4665L13.2651 48.213C13.0949 48.1393 12.9117 48.1007 12.7263 48.0995C12.541 48.0983 12.3574 48.1343 12.1862 48.2057C12.0151 48.2772 11.8599 48.3824 11.7299 48.5152C11.5999 48.648 11.4977 48.8057 11.4294 48.9789C11.3556 49.1525 11.3167 49.3393 11.3151 49.5281C11.3135 49.7169 11.3491 49.9041 11.4199 50.079C11.4908 50.2539 11.5955 50.413 11.7279 50.547C11.8603 50.6809 12.0179 50.7869 12.1914 50.8592L15.17 52.078L12.0183 51.4513C11.8341 51.4147 11.6444 51.4148 11.4603 51.4519C11.2762 51.489 11.1012 51.5621 10.9452 51.6672C10.7893 51.7723 10.6553 51.9073 10.5512 52.0644C10.4471 52.2215 10.3748 52.3978 10.3384 52.583C10.302 52.7682 10.3023 52.9587 10.3392 53.1438C10.3761 53.3289 10.4488 53.5047 10.5533 53.6616C10.6578 53.8184 10.7922 53.9531 10.9484 54.0577C11.1047 54.1624 11.2799 54.2352 11.4641 54.2717L14.6159 54.8985L11.3948 54.8985C11.0182 54.8985 10.657 55.0488 10.3906 55.3165C10.1243 55.5843 9.97473 55.9474 9.97473 56.326C9.97473 56.7047 10.1243 57.0678 10.3906 57.3356C10.657 57.6033 11.0182 57.7538 11.3948 57.7538L14.6159 57.7538L11.4641 58.3806C11.2665 58.3998 11.075 58.4604 10.9022 58.5587C10.7294 58.6569 10.579 58.7905 10.4607 58.9508C10.3424 59.1111 10.2589 59.2946 10.2155 59.4893C10.1721 59.6841 10.1697 59.8857 10.2086 60.0814C10.2476 60.2771 10.3269 60.4625 10.4415 60.6255C10.5561 60.7885 10.7034 60.9256 10.8739 61.0278C11.0444 61.13 11.2343 61.195 11.4314 61.2189C11.6286 61.2427 11.8285 61.2248 12.0183 61.1662L15.17 60.5394L12.1914 61.7929C12.0191 61.8616 11.8623 61.9642 11.7303 62.0949C11.5982 62.2256 11.4934 62.3817 11.4224 62.5538C11.3513 62.7259 11.3153 62.9106 11.3166 63.0969C11.3178 63.2832 11.3562 63.4674 11.4294 63.6385C11.5683 63.9886 11.8393 64.2692 12.1832 64.4192C12.527 64.5693 12.9159 64.5764 13.2651 64.4393L16.2437 63.1858L13.5768 64.9965C13.4193 65.0949 13.2837 65.2249 13.1783 65.3783C13.0729 65.5317 13.0001 65.7052 12.9644 65.8881C12.9286 66.0711 12.9307 66.2594 12.9705 66.4415C13.0103 66.6235 13.0871 66.7954 13.1958 66.9464C13.401 67.2568 13.7186 67.4742 14.081 67.5522C14.4433 67.6303 14.8218 67.5628 15.1354 67.3643L17.8369 65.5536L15.551 67.8518C15.4191 67.9844 15.3145 68.1418 15.2431 68.3151C15.1717 68.4884 15.135 68.6741 15.135 68.8616C15.135 69.0492 15.1717 69.2348 15.2431 69.408C15.3145 69.5813 15.4191 69.7387 15.551 69.8713C15.6829 70.004 15.8395 70.1091 16.0118 70.1809C16.1842 70.2527 16.3689 70.2896 16.5554 70.2896C16.742 70.2896 16.9266 70.2527 17.0989 70.1809C17.2713 70.1091 17.4279 70.004 17.5598 69.8713L19.8457 67.5732L18.0447 70.2544C17.8419 70.571 17.7683 70.954 17.8392 71.3237C17.9102 71.6934 18.1202 72.0212 18.4256 72.2391C18.5786 72.3492 18.7523 72.4269 18.936 72.4673C19.1198 72.5077 19.3099 72.5101 19.4946 72.4743C19.6794 72.4385 19.8549 72.3652 20.0106 72.2589C20.1662 72.1526 20.2986 72.0156 20.3998 71.8562L22.2008 69.175L20.954 72.1695C20.8267 72.5212 20.8384 72.9085 20.9866 73.2518C21.1347 73.5951 21.4082 73.8683 21.7506 74.015C21.9209 74.0887 22.1041 74.1273 22.2894 74.1285C22.4747 74.1297 22.6583 74.0936 22.8295 74.0221C23.0007 73.9507 23.1558 73.8455 23.2858 73.7127C23.4158 73.5799 23.518 73.4222 23.5863 73.249L24.8331 70.2544L24.2097 73.4231C24.1514 73.6139 24.1334 73.8148 24.1572 74.013C24.1809 74.2112 24.2457 74.4021 24.3474 74.5735C24.4491 74.745 24.5854 74.8931 24.7475 75.0083C24.9096 75.1235 25.0939 75.2032 25.2885 75.2424C25.4832 75.2815 25.6839 75.2791 25.8776 75.2355C26.0713 75.1918 26.2538 75.1079 26.4133 74.9889C26.5727 74.87 26.7055 74.7188 26.8032 74.5451C26.9009 74.3713 26.9613 74.1788 26.9804 73.9802L27.6039 70.8116L27.6039 74.0499C27.6039 74.4285 27.7535 74.7917 28.0199 75.0594C28.2862 75.3271 28.6473 75.4775 29.0239 75.4775C29.4005 75.4775 29.7617 75.3271 30.028 75.0594C30.2943 74.7917 30.4439 74.4285 30.4439 74.0499L30.4439 70.8116L31.0674 73.9802C31.1409 74.3542 31.3591 74.6836 31.6741 74.8958C31.9891 75.1081 32.3751 75.1858 32.7472 75.1119C33.1192 75.038 33.4467 74.8185 33.6578 74.5018C33.8689 74.1851 33.9463 73.7971 33.8728 73.4231L33.2493 70.2544L34.4616 73.249C34.5335 73.4234 34.6391 73.5818 34.7723 73.7149C34.9055 73.8481 35.0637 73.9533 35.2377 74.0246C35.4116 74.0958 35.5979 74.1316 35.7857 74.13C35.9736 74.1284 36.1592 74.0893 36.3319 74.015C36.5041 73.9464 36.6609 73.8437 36.793 73.713C36.9251 73.5823 37.0298 73.4262 37.1008 73.2542C37.1719 73.0821 37.2079 72.8975 37.2067 72.7112C37.2055 72.5248 37.1671 72.3407 37.0938 72.1695L35.8469 69.175L37.648 71.8562C37.7526 72.0116 37.8866 72.1449 38.0425 72.2483C38.1983 72.3517 38.3728 72.4232 38.5562 72.4588C38.7395 72.4943 38.9279 72.4933 39.1109 72.4556C39.2938 72.4179 39.4676 72.3443 39.6222 72.2391C39.7769 72.134 39.9093 71.9992 40.0121 71.8426C40.115 71.6859 40.1861 71.5104 40.2215 71.3261C40.2569 71.1418 40.2558 70.9523 40.2183 70.7684C40.1809 70.5845 40.1078 70.4099 40.0031 70.2544L38.2022 67.5732L40.4881 69.8713C40.62 70.004 40.7765 70.1091 40.9488 70.1809C41.1212 70.2527 41.3059 70.2896 41.4924 70.2896C41.679 70.2896 41.8637 70.2527 42.036 70.1809C42.2084 70.1091 42.365 70.004 42.4969 69.8713C42.6288 69.7387 42.7334 69.5813 42.8048 69.408C42.8761 69.2348 42.9129 69.0492 42.9129 68.8616C42.9129 68.6741 42.8761 68.4884 42.8048 68.3151C42.7334 68.1418 42.6288 67.9844 42.4969 67.8518L40.2109 65.5536L42.9125 67.3643C43.2314 67.5647 43.6152 67.6332 43.9833 67.5553C44.3514 67.4774 44.6752 67.2592 44.8867 66.9464C45.0842 66.6311 45.1513 66.2508 45.0736 65.8864C44.996 65.5221 44.7797 65.2027 44.4711 64.9965L41.8041 63.1858L44.7828 64.4393C45.1319 64.5764 45.5208 64.5693 45.8647 64.4192C46.2086 64.2692 46.4795 63.9886 46.6184 63.6385C46.6917 63.4674 46.7301 63.2832 46.7313 63.0969C46.7325 62.9106 46.6964 62.7259 46.6254 62.5538C46.5543 62.3817 46.4497 62.2256 46.3176 62.0949C46.1855 61.9642 46.0287 61.8616 45.8564 61.7929L42.8778 60.5394L46.0642 61.1662C46.254 61.2248 46.4539 61.2427 46.651 61.2189C46.8481 61.195 47.038 61.13 47.2085 61.0278C47.379 60.9256 47.5263 60.7885 47.6409 60.6255C47.7555 60.4625 47.8348 60.2771 47.8738 60.0814C47.9127 59.8857 47.9104 59.6841 47.867 59.4893C47.8236 59.2946 47.74 59.1111 47.6217 58.9508C47.5034 58.7905 47.353 58.6569 47.1802 58.5587C47.0074 58.4604 46.816 58.3998 46.6184 58.3806L43.432 57.7538L46.6531 57.7538C47.0297 57.7538 47.3908 57.6033 47.6571 57.3356C47.9234 57.0678 48.073 56.7047 48.073 56.326C48.073 56.1386 48.0364 55.9531 47.965 55.7798C47.8936 55.6066 47.789 55.4491 47.6571 55.3165C47.5252 55.184 47.3687 55.0788 47.1965 55.0071C47.0242 54.9353 46.8396 54.8985 46.6531 54.8985L43.4666 54.8985L46.6531 54.2717C47.0159 54.1806 47.3298 53.9525 47.5297 53.6348C47.7297 53.3171 47.8002 52.9342 47.7267 52.5656Z" fill="#E89B23"/>
<path d="M30.8248 38.1149C30.953 37.8126 31.1707 37.5573 31.4482 37.3836C31.6485 37.2457 31.8745 37.1501 32.1126 37.1022C32.3507 37.0543 32.5959 37.0553 32.8335 37.1052C33.3156 37.2059 33.7388 37.4936 34.0111 37.906C34.1857 38.1783 34.2926 38.4888 34.3228 38.8114C34.5116 38.5413 34.7772 38.335 35.0848 38.2195C35.5302 38.0447 36.0248 38.0447 36.4703 38.2195C36.7003 38.3048 36.9092 38.4392 37.0826 38.6135C37.256 38.7878 37.3897 38.9979 37.4746 39.2292C37.5586 39.5369 37.5586 39.8617 37.4746 40.1694C37.7212 39.9553 38.0201 39.8111 38.3405 39.7516C38.5781 39.7017 38.8235 39.7005 39.0615 39.7484C39.2996 39.7963 39.5256 39.8921 39.7259 40.03C40.0542 40.2619 40.3013 40.5922 40.4319 40.9736C40.5625 41.355 40.57 41.7681 40.4532 42.154C40.7307 42.0041 41.0389 41.9208 41.3538 41.9105C41.8478 41.9176 42.3196 42.1172 42.6698 42.4675C42.8454 42.6396 42.985 42.8455 43.0801 43.0728C43.1753 43.3 43.2242 43.5441 43.224 43.7907C43.2166 44.1124 43.1208 44.4258 42.947 44.6961C43.2644 44.6087 43.5993 44.6087 43.9167 44.6961C44.156 44.732 44.3848 44.819 44.5879 44.9511C44.791 45.0832 44.9637 45.2573 45.0943 45.462C44.8256 45.7837 44.6578 46.1783 44.6121 46.5959C44.5664 47.0134 44.645 47.4354 44.8378 47.8081C45.0305 48.1808 45.3288 48.4877 45.6951 48.6899C46.0613 48.8921 46.479 48.9805 46.8953 48.9441C47.0681 49.4041 47.0681 49.9119 46.8953 50.3719C46.7689 50.6745 46.5659 50.9385 46.3065 51.1378C46.6263 51.1732 46.9339 51.2804 47.207 51.4513C47.6172 51.7251 47.9034 52.1504 48.0036 52.6351C48.0822 53.036 48.0262 53.4519 47.8444 53.8174C47.6626 54.1829 47.3654 54.4774 46.9992 54.6547C47.3578 54.7815 47.6685 55.017 47.8883 55.3289C48.108 55.6408 48.226 56.0136 48.226 56.3958C48.226 56.778 48.108 57.1508 47.8883 57.4627C47.6685 57.7745 47.3578 58.0101 46.9992 58.1368C47.3681 58.3204 47.6666 58.6212 47.8482 58.9927C48.0298 59.3641 48.0844 59.7855 48.0036 60.1913C47.9534 60.4265 47.8571 60.6491 47.7203 60.8463C47.5836 61.0436 47.409 61.2115 47.207 61.3403C46.949 61.5411 46.6327 61.6513 46.3065 61.6537C46.5579 61.861 46.7592 62.1229 46.8953 62.4198C47.0681 62.8798 47.0681 63.3875 46.8953 63.8475C46.7399 64.2248 46.4666 64.5409 46.1167 64.7482C45.7668 64.9555 45.3593 65.0427 44.9557 64.9965C45.1973 65.3172 45.3281 65.7085 45.3281 66.1108C45.3281 66.5131 45.1973 66.9044 44.9557 67.2251C44.7309 67.5711 44.3971 67.8312 44.0077 67.9638C43.6184 68.0964 43.1961 68.0937 42.8084 67.9563C42.9884 68.2365 43.0847 68.5628 43.0855 68.8964C43.0715 69.3915 42.8738 69.8635 42.5314 70.2196C42.366 69.9287 42.0925 69.7158 41.771 69.6276C41.4495 69.5395 41.1062 69.5833 40.8168 69.7495C40.5275 69.9157 40.3157 70.1907 40.228 70.514C40.1403 70.8372 40.184 71.1823 40.3493 71.4732C40.4031 71.9206 40.2786 72.3712 40.003 72.7267C39.6601 72.9483 39.2546 73.0512 38.8482 73.0198C38.4419 72.9884 38.0569 72.8243 37.7517 72.5526C37.8387 72.8718 37.8387 73.2085 37.7517 73.5276C37.6612 73.7556 37.5254 73.9626 37.3527 74.1362C37.1801 74.3098 36.9741 74.4463 36.7473 74.5373C36.3019 74.7122 35.8074 74.7122 35.3619 74.5373C35.0609 74.4103 34.7982 74.2062 34.6 73.9454C34.5648 74.2669 34.4583 74.5762 34.2883 74.8507C34.0159 75.2631 33.5928 75.5509 33.1107 75.6516C32.6309 75.7185 32.1425 75.6204 31.7252 75.3731C31.4636 75.1815 31.2501 74.931 31.1018 74.6418C30.989 75.0341 30.7523 75.3788 30.4274 75.6238C30.1024 75.8688 29.707 76.0008 29.3008 75.9999C28.8977 76.0049 28.5045 75.8738 28.1842 75.6276C27.864 75.3814 27.6352 75.0343 27.5344 74.6418C27.3432 75.0052 27.0426 75.2986 26.6756 75.4799C26.3086 75.6613 25.894 75.7214 25.491 75.6516C25.0955 75.5679 24.7386 75.3553 24.4756 75.0468C24.2125 74.7383 24.0582 74.3512 24.0364 73.9454C23.7798 74.261 23.4313 74.4878 23.04 74.594C22.6486 74.7002 22.234 74.6803 21.8544 74.5373C21.4763 74.3748 21.1607 74.0937 20.9547 73.736C20.7487 73.3783 20.6633 72.9632 20.7114 72.5526C20.4817 72.7719 20.1924 72.9173 19.8802 72.9705C19.4043 73.0699 18.9088 72.9826 18.4948 72.7267C18.0846 72.4529 17.7983 72.0275 17.6982 71.5428C17.6112 71.2237 17.6112 70.887 17.6982 70.5678C17.3463 70.788 16.9307 70.8819 16.5189 70.8343C16.1071 70.7868 15.7235 70.6005 15.4304 70.3059C15.1374 70.0112 14.9521 69.6256 14.9048 69.2116C14.8575 68.7976 14.9508 68.3797 15.1698 68.0259C14.7821 68.1633 14.3598 68.166 13.9704 68.0334C13.5811 67.9008 13.2472 67.6407 13.0224 67.2947C12.7592 66.8819 12.6603 66.3847 12.7454 65.9019C12.8036 65.5824 12.9613 65.2896 13.1957 65.0661C12.7873 65.1144 12.3744 65.0287 12.0185 64.8216C11.6627 64.6145 11.3831 64.2971 11.2215 63.9171C11.0486 63.4571 11.0486 62.9494 11.2215 62.4894C11.3575 62.1925 11.5588 61.9307 11.8102 61.7235C11.484 61.721 11.1677 61.6108 10.9098 61.41C10.7077 61.2812 10.5333 61.1133 10.3965 60.9161C10.2597 60.7188 10.1634 60.4959 10.1131 60.2608C10.0292 59.7669 10.1278 59.2593 10.3903 58.8333C10.5901 58.5791 10.8371 58.3662 11.1176 58.2065C10.7735 58.0654 10.479 57.8244 10.2717 57.5143C10.0644 57.2042 9.95374 56.8391 9.95374 56.4655C9.95374 56.0919 10.0644 55.7268 10.2717 55.4167C10.479 55.1066 10.7735 54.8656 11.1176 54.7245C10.8299 54.5753 10.5808 54.3607 10.3903 54.0977C10.127 53.685 10.028 53.1876 10.1131 52.7048C10.2133 52.2201 10.4996 51.7946 10.9098 51.5208C11.1828 51.3498 11.4905 51.2429 11.8102 51.2075C11.5508 51.0082 11.3479 50.744 11.2215 50.4414C11.0486 49.9813 11.0486 49.4738 11.2215 49.0138C11.393 48.6436 11.6758 48.337 12.03 48.1371C12.3843 47.9372 12.792 47.854 13.1957 47.8995C12.9254 47.5928 12.7623 47.2057 12.731 46.7971C12.6998 46.3886 12.8021 45.9808 13.0224 45.6361C13.2588 45.3032 13.5934 45.0534 13.9788 44.9222C14.3642 44.791 14.7808 44.785 15.1698 44.905C14.9657 44.5546 14.8823 44.1464 14.9324 43.7435C14.9825 43.3406 15.1633 42.9655 15.4469 42.6764C15.7417 42.3927 16.1179 42.2099 16.5221 42.1536C16.9263 42.0973 17.3378 42.1707 17.6982 42.3631C17.6106 42.0559 17.6106 41.7301 17.6982 41.4229C17.7983 40.9382 18.0846 40.5127 18.4948 40.2389C18.6942 40.0991 18.9202 40.0023 19.1586 39.9543C19.397 39.9064 19.6426 39.9086 19.8802 39.9605C20.1873 40.0287 20.4729 40.1722 20.7114 40.3783C20.6274 40.0706 20.6274 39.7458 20.7114 39.4381C20.8019 39.2101 20.9377 39.003 21.1104 38.8294C21.283 38.6558 21.489 38.5195 21.7158 38.4284C22.1734 38.2546 22.6783 38.2546 23.1358 38.4284C23.4324 38.563 23.6934 38.7657 23.8978 39.0203C23.9137 38.6127 24.066 38.2225 24.33 37.9128C24.594 37.6031 24.9542 37.3922 25.3524 37.3141C25.7558 37.2387 26.1726 37.2962 26.5408 37.4782C26.909 37.6601 27.2088 37.9567 27.3959 38.3238C27.4955 37.9279 27.723 37.5763 28.0426 37.3243C28.3623 37.0723 28.756 36.9338 29.1623 36.9309C29.5224 36.9498 29.8699 37.0711 30.1642 37.2807C30.4585 37.4903 30.6876 37.7796 30.8248 38.1149ZM27.1881 41.9105L26.5647 38.7416C26.5625 38.5938 26.5281 38.4483 26.4638 38.3153C26.3996 38.1823 26.3071 38.0652 26.1928 37.9721C26.0786 37.879 25.9453 37.8122 25.8026 37.7766C25.6598 37.7409 25.5111 37.7372 25.3668 37.7657C25.2225 37.7942 25.0862 37.8542 24.9675 37.9415C24.8488 38.0288 24.7505 38.1411 24.6798 38.2707C24.609 38.4003 24.5674 38.5442 24.558 38.6917C24.5486 38.8393 24.5715 38.9869 24.6251 39.1246L25.2485 42.2934C25.2491 42.3918 25.2177 42.4877 25.1592 42.5665C25.1007 42.6454 25.0183 42.7028 24.9243 42.7304C24.8304 42.7579 24.7301 42.754 24.6386 42.7191C24.5472 42.6842 24.4695 42.6204 24.4173 42.5372L23.2051 39.5425C23.0986 39.2984 22.9006 39.1066 22.6541 39.0088C22.4075 38.911 22.1325 38.9151 21.8889 39.0203C21.6543 39.1191 21.4678 39.3066 21.3694 39.5425C21.318 39.6635 21.2914 39.794 21.2914 39.9256C21.2914 40.0573 21.318 40.1876 21.3694 40.3086L22.5817 43.3032C22.6228 43.4016 22.6281 43.5117 22.5964 43.6137C22.5647 43.7156 22.4982 43.803 22.4085 43.8604C22.3323 43.9289 22.2336 43.9667 22.1314 43.9667C22.0292 43.9667 21.9306 43.9289 21.8544 43.8604L20.0533 41.1443C19.9 40.9365 19.6797 40.7888 19.4299 40.7265C19.1691 40.6845 18.9023 40.7439 18.6836 40.8927C18.4648 41.0414 18.3106 41.2683 18.2523 41.5273C18.1677 41.7636 18.1677 42.0223 18.2523 42.2586L20.0533 44.9747C20.091 45.0105 20.1211 45.0537 20.1417 45.1016C20.1622 45.1495 20.1728 45.2009 20.1728 45.2531C20.1728 45.3053 20.1622 45.357 20.1417 45.4049C20.1211 45.4528 20.091 45.4959 20.0533 45.5317C20.0147 45.5707 19.9688 45.6016 19.9183 45.6227C19.8678 45.6438 19.8136 45.6546 19.7589 45.6546C19.7042 45.6546 19.6501 45.6438 19.5995 45.6227C19.549 45.6016 19.5032 45.5707 19.4646 45.5317L17.1787 43.2337C17.0884 43.141 16.9806 43.0673 16.8617 43.0171C16.7427 42.9668 16.6149 42.941 16.4859 42.941C16.3569 42.941 16.2292 42.9668 16.1103 43.0171C15.9913 43.0673 15.8836 43.141 15.7933 43.2337C15.6131 43.4272 15.5129 43.6822 15.5129 43.9473C15.5129 44.2124 15.6131 44.4677 15.7933 44.6612L18.0792 46.9593C18.1473 47.0359 18.185 47.1351 18.185 47.2379C18.185 47.3407 18.1473 47.4399 18.0792 47.5165C18.003 47.5851 17.9043 47.6228 17.8021 47.6228C17.6998 47.6228 17.6012 47.5851 17.525 47.5165L14.8581 45.7058C14.6372 45.5595 14.3679 45.5066 14.1085 45.5587C13.8491 45.6109 13.6206 45.7639 13.4727 45.9844C13.4221 46.0996 13.396 46.2241 13.396 46.35C13.396 46.4759 13.4221 46.6005 13.4727 46.7157C13.4884 46.8502 13.5338 46.9793 13.6058 47.0938C13.6777 47.2083 13.7742 47.3051 13.8883 47.3771L16.5553 49.153C16.617 49.2326 16.6506 49.3307 16.6506 49.4316C16.6506 49.5326 16.617 49.6307 16.5553 49.7103C16.5101 49.8039 16.4317 49.8771 16.3356 49.9158C16.2395 49.9544 16.1326 49.9556 16.0356 49.9192L13.0571 48.6657C12.9367 48.614 12.807 48.5873 12.6761 48.5873C12.5451 48.5873 12.4156 48.614 12.2951 48.6657C12.0472 48.7746 11.8493 48.9734 11.741 49.2227C11.6895 49.3438 11.663 49.474 11.663 49.6057C11.663 49.7374 11.6895 49.8676 11.741 49.9887C11.8506 50.229 12.0495 50.4166 12.2951 50.5111L15.2737 51.7646C15.3682 51.8097 15.4441 51.8867 15.4883 51.982C15.5326 52.0773 15.5424 52.1851 15.5161 52.287C15.5003 52.3396 15.4743 52.3885 15.4396 52.4311C15.4049 52.4736 15.3622 52.5089 15.3139 52.5348C15.2657 52.5606 15.2128 52.5767 15.1584 52.582C15.1039 52.5872 15.0489 52.5817 14.9966 52.5656L11.8449 51.9388C11.7298 51.89 11.6062 51.8647 11.4813 51.8647C11.3563 51.8647 11.2327 51.89 11.1176 51.9388C11.0025 52.001 10.9043 52.0905 10.8319 52.1998C10.7594 52.3091 10.7148 52.4349 10.702 52.5656C10.6514 52.6808 10.6252 52.8052 10.6252 52.9311C10.6252 53.057 10.6514 53.1815 10.702 53.2967C10.7681 53.4088 10.8584 53.5047 10.9663 53.577C11.0742 53.6493 11.197 53.6963 11.3254 53.7145L14.4771 54.3761C14.5306 54.3801 14.5827 54.3954 14.6299 54.421C14.6771 54.4465 14.7183 54.4819 14.751 54.5247C14.7837 54.5674 14.807 54.6166 14.8195 54.669C14.832 54.7214 14.8334 54.7758 14.8235 54.8288C14.8148 54.9335 14.7671 55.0311 14.6901 55.1021C14.6131 55.1731 14.5123 55.2121 14.4078 55.2118L11.1868 55.2118C10.9204 55.2118 10.665 55.3182 10.4766 55.5076C10.2883 55.697 10.1825 55.9539 10.1825 56.2217C10.1824 56.3527 10.2085 56.4824 10.2594 56.603C10.3103 56.7236 10.3849 56.8327 10.4786 56.9237C10.5724 57.0147 10.6833 57.0857 10.805 57.1326C10.9267 57.1795 11.0566 57.2013 11.1868 57.1966L14.4078 57.1966C14.518 57.1966 14.6238 57.2406 14.7018 57.319C14.7797 57.3974 14.8235 57.5036 14.8235 57.6144C14.8334 57.6674 14.832 57.722 14.8195 57.7745C14.807 57.8269 14.7837 57.876 14.751 57.9188C14.7183 57.9615 14.6771 57.9967 14.6299 58.0223C14.5827 58.0478 14.5306 58.0631 14.4771 58.0671L11.3254 58.6939C11.1991 58.7185 11.0789 58.7681 10.9719 58.8399C10.8649 58.9116 10.7731 59.0042 10.702 59.1119C10.6019 59.3573 10.6019 59.6324 10.702 59.8779C10.7201 60.0069 10.7669 60.1302 10.8388 60.2387C10.9108 60.3472 11.006 60.4381 11.1176 60.5046C11.2321 60.5554 11.356 60.5817 11.4813 60.5817C11.6065 60.5817 11.7303 60.5554 11.8449 60.5046L14.9966 59.8779C15.0976 59.8688 15.1986 59.8943 15.2834 59.9501C15.3682 60.006 15.4317 60.0889 15.4637 60.1856C15.4958 60.2823 15.4945 60.3869 15.46 60.4827C15.4255 60.5785 15.3598 60.6599 15.2737 60.7135L12.2951 62.2805C12.0472 62.3894 11.8493 62.5884 11.741 62.8376C11.6895 62.9587 11.663 63.089 11.663 63.2206C11.663 63.3523 11.6895 63.4826 11.741 63.6037C11.8474 63.8477 12.0455 64.0395 12.2921 64.1374C12.5386 64.2352 12.8136 64.2311 13.0571 64.126L16.0356 62.8725C16.1367 62.8217 16.2537 62.8133 16.3609 62.8492C16.468 62.8851 16.5566 62.9624 16.6072 63.064C16.6577 63.1656 16.666 63.2831 16.6303 63.3908C16.5946 63.4986 16.5177 63.5878 16.4167 63.6385L13.7498 65.4492C13.6383 65.5157 13.543 65.6066 13.471 65.7151C13.3991 65.8235 13.3523 65.9468 13.3341 66.0759C13.2871 66.271 13.3012 66.476 13.3744 66.6627C13.4476 66.8495 13.5764 67.009 13.7431 67.1194C13.9098 67.2299 14.1063 67.2859 14.3059 67.2799C14.5055 67.2739 14.6983 67.2061 14.8581 67.0858L17.525 65.3099C17.5606 65.2719 17.6036 65.2417 17.6512 65.221C17.6989 65.2004 17.7502 65.1898 17.8021 65.1898C17.8539 65.1898 17.9053 65.2004 17.953 65.221C18.0006 65.2417 18.0436 65.2719 18.0792 65.3099C18.1438 65.3949 18.1788 65.4988 18.1788 65.6058C18.1788 65.7128 18.1438 65.8169 18.0792 65.9019L15.7933 68.2001C15.7023 68.2915 15.6302 68.4 15.5809 68.5195C15.5317 68.639 15.5063 68.7671 15.5063 68.8964C15.5063 69.0257 15.5317 69.1538 15.5809 69.2733C15.6302 69.3928 15.7023 69.5014 15.7933 69.5929C15.8843 69.6843 15.9922 69.7569 16.111 69.8063C16.2299 69.8558 16.3573 69.8813 16.4859 69.8813C16.6146 69.8813 16.742 69.8558 16.8608 69.8063C16.9797 69.7569 17.0877 69.6843 17.1787 69.5929L19.4646 67.2947C19.5491 67.2297 19.6525 67.1946 19.7589 67.1946C19.8653 67.1946 19.9688 67.2297 20.0533 67.2947C20.124 67.3769 20.1629 67.4819 20.1629 67.5906C20.1629 67.6993 20.124 67.8043 20.0533 67.8866L18.2523 70.5678C18.1679 70.8161 18.1679 71.0856 18.2523 71.3339C18.3143 71.585 18.4612 71.8066 18.6679 71.9606C18.9121 72.0613 19.1858 72.0613 19.4299 71.9606C19.5562 71.936 19.6763 71.8865 19.7833 71.8147C19.8904 71.743 19.9821 71.6505 20.0533 71.5428L21.8544 68.8617C21.9134 68.7818 21.9989 68.7256 22.0954 68.7034C22.1919 68.6813 22.293 68.6945 22.3807 68.7407C22.4684 68.7869 22.5369 68.863 22.5737 68.9554C22.6106 69.0478 22.6134 69.1503 22.5817 69.2446L21.3694 72.2392C21.2649 72.484 21.2608 72.7606 21.3581 73.0084C21.4554 73.2563 21.6462 73.4553 21.8889 73.5624C22.0117 73.6134 22.1433 73.6395 22.2761 73.6391C22.4089 73.6387 22.5402 73.6117 22.6626 73.5599C22.785 73.5081 22.896 73.4324 22.9891 73.3372C23.0822 73.242 23.1556 73.1291 23.2051 73.0052L24.4173 70.0107C24.4562 69.9108 24.5319 69.8297 24.6286 69.7843C24.7253 69.739 24.8357 69.7327 24.9368 69.7669C25.0373 69.7987 25.1235 69.8649 25.1804 69.9539C25.2374 70.043 25.2615 70.1494 25.2485 70.2545L24.6251 73.4579C24.5999 73.5837 24.5996 73.7132 24.6243 73.8391C24.6489 73.965 24.6981 74.0847 24.7689 74.1915C24.8397 74.2982 24.9307 74.3898 25.0368 74.4612C25.1429 74.5325 25.2619 74.5821 25.3871 74.6071C25.644 74.659 25.9109 74.608 26.1309 74.4649C26.3509 74.3218 26.5066 74.0979 26.5647 73.841L27.1881 70.6723C27.1881 70.5615 27.2319 70.4551 27.3098 70.3768C27.3878 70.2984 27.4935 70.2545 27.6038 70.2545C27.714 70.2545 27.8197 70.2984 27.8976 70.3768C27.9755 70.4551 28.0194 70.5615 28.0194 70.6723L28.0194 73.9106C28.0194 74.1784 28.1252 74.4353 28.3135 74.6247C28.5019 74.8141 28.7573 74.9204 29.0237 74.9204C29.2901 74.9204 29.5456 74.8141 29.734 74.6247C29.9223 74.4353 30.0281 74.1784 30.0281 73.9106L30.0281 70.6723C30.0278 70.5673 30.0668 70.4659 30.1374 70.3885C30.208 70.311 30.3051 70.2632 30.4092 70.2545C30.4619 70.2445 30.516 70.2458 30.5681 70.2584C30.6203 70.2709 30.6693 70.2944 30.7118 70.3273C30.7543 70.3601 30.7894 70.4017 30.8148 70.4491C30.8403 70.4966 30.8554 70.5489 30.8593 70.6027L31.4828 73.7713C31.5133 73.9004 31.5687 74.0222 31.6459 74.1297C31.7232 74.2373 31.8208 74.3285 31.9331 74.3981C32.0477 74.449 32.1715 74.4752 32.2967 74.4752C32.4219 74.4752 32.5458 74.449 32.6604 74.3981C32.7881 74.3776 32.9098 74.3295 33.0174 74.2574C33.1249 74.1853 33.2158 74.0908 33.2838 73.9802C33.3612 73.8768 33.4165 73.7586 33.4463 73.6328C33.4761 73.507 33.4797 73.3763 33.4569 73.249L32.799 70.0455C32.786 69.9405 32.8101 69.8341 32.8671 69.745C32.924 69.656 33.0102 69.5898 33.1107 69.558C33.2118 69.5238 33.3222 69.5301 33.4189 69.5754C33.5156 69.6208 33.5913 69.7019 33.6302 69.8018L34.877 72.7963C34.918 72.9216 34.9857 73.0364 35.0755 73.1326C35.1652 73.2289 35.2749 73.3042 35.3966 73.3535C35.517 73.4052 35.6466 73.4319 35.7775 73.4319C35.9085 73.4319 36.0381 73.4052 36.1586 73.3535C36.2803 73.3042 36.3898 73.2289 36.4796 73.1326C36.5693 73.0364 36.6371 72.9216 36.6781 72.7963C36.7295 72.6752 36.756 72.545 36.756 72.4133C36.756 72.2817 36.7295 72.1513 36.6781 72.0302L35.4658 69.0357C35.4422 68.9902 35.428 68.9403 35.424 68.8891C35.4199 68.8379 35.4261 68.7864 35.4423 68.7376C35.4584 68.6889 35.4841 68.644 35.5179 68.6055C35.5517 68.5669 35.5929 68.5356 35.639 68.5134C35.7208 68.4424 35.8253 68.4032 35.9334 68.4032C36.0415 68.4032 36.146 68.4424 36.2278 68.5134L37.9942 71.1946C38.1421 71.4151 38.3705 71.568 38.6299 71.6202C38.8893 71.6723 39.1587 71.6195 39.3796 71.4732C39.4867 71.4017 39.5786 71.3093 39.6499 71.2017C39.7213 71.0941 39.7707 70.9733 39.7952 70.8464C39.8953 70.6009 39.8953 70.3257 39.7952 70.0803L37.9942 67.3991C37.9296 67.3141 37.8945 67.2102 37.8945 67.1032C37.8945 66.9962 37.9296 66.8921 37.9942 66.8071C38.0704 66.7386 38.169 66.7008 38.2712 66.7008C38.3735 66.7008 38.4721 66.7386 38.5483 66.8071L40.8342 69.1053C40.9245 69.198 41.0323 69.2716 41.1513 69.3219C41.2702 69.3721 41.3979 69.398 41.5269 69.398C41.6559 69.398 41.7836 69.3721 41.9026 69.3219C42.0215 69.2716 42.1294 69.198 42.2197 69.1053C42.3163 69.0172 42.3935 68.9098 42.4464 68.7898C42.4992 68.6699 42.5265 68.5402 42.5265 68.409C42.5265 68.2778 42.4992 68.1481 42.4464 68.0281C42.3935 67.9082 42.3163 67.8006 42.2197 67.7125L40.003 65.7626C39.9642 65.7237 39.9335 65.6777 39.9125 65.6269C39.8915 65.5761 39.8807 65.5216 39.8807 65.4666C39.8807 65.4116 39.8915 65.3572 39.9125 65.3064C39.9335 65.2556 39.9642 65.2094 40.003 65.1706C40.0386 65.1326 40.0815 65.1025 40.1292 65.0818C40.1768 65.0612 40.2281 65.0505 40.28 65.0505C40.3319 65.0505 40.3833 65.0612 40.4309 65.0818C40.4786 65.1025 40.5215 65.1326 40.5571 65.1706L43.2587 66.9465C43.3737 66.9953 43.4974 67.0205 43.6224 67.0205C43.7473 67.0205 43.8709 66.9953 43.986 66.9465C44.2396 66.8932 44.4629 66.7435 44.6094 66.5286C44.6861 66.4202 44.74 66.2971 44.7677 66.167C44.7954 66.0369 44.7963 65.9025 44.7703 65.772C44.7444 65.6415 44.6921 65.5178 44.6168 65.4084C44.5414 65.299 44.4446 65.2062 44.3323 65.1358L41.6655 63.3251C41.5973 63.2485 41.5596 63.1493 41.5596 63.0465C41.5596 62.9438 41.5973 62.8446 41.6655 62.768C41.7172 62.6718 41.8017 62.5975 41.9036 62.5591C42.0055 62.5207 42.1178 62.5206 42.2197 62.559L45.1982 63.8126C45.3186 63.8643 45.4482 63.891 45.5791 63.891C45.7101 63.891 45.8397 63.8643 45.9602 63.8126C46.1948 63.7137 46.3813 63.5262 46.4797 63.2903C46.5311 63.1692 46.5577 63.0389 46.5577 62.9072C46.5577 62.7756 46.5311 62.6453 46.4797 62.5243C46.3857 62.2773 46.1992 62.0772 45.9602 61.967L42.9815 60.7484C42.8821 60.7093 42.8015 60.6333 42.7564 60.5361C42.7112 60.4388 42.7051 60.3277 42.7392 60.226C42.7469 60.1715 42.7661 60.1194 42.7956 60.0732C42.8251 60.0269 42.8643 59.9877 42.9103 59.958C42.9563 59.9282 43.0081 59.9088 43.0623 59.901C43.1164 59.8932 43.1715 59.8972 43.224 59.9127L46.3758 60.5395C46.4897 60.5925 46.6139 60.62 46.7395 60.62C46.8651 60.62 46.9891 60.5925 47.1031 60.5395C47.2154 60.4698 47.313 60.3786 47.3902 60.271C47.4675 60.1635 47.5229 60.0418 47.5533 59.9127C47.5785 59.7824 47.5779 59.6483 47.5514 59.5183C47.525 59.3882 47.4732 59.2646 47.3992 59.1546C47.3252 59.0447 47.2304 58.9506 47.1202 58.8775C47.0099 58.8044 46.8865 58.7537 46.7568 58.7287L43.605 58.102C43.5009 58.0848 43.4072 58.0285 43.3429 57.9445C43.2786 57.8604 43.2485 57.7548 43.2587 57.6493C43.2667 57.5411 43.313 57.4395 43.3893 57.3628C43.4656 57.2861 43.5667 57.2395 43.6743 57.2314L46.8953 57.2314C47.0255 57.2361 47.1554 57.2144 47.277 57.1675C47.3987 57.1206 47.5098 57.0496 47.6035 56.9586C47.6973 56.8676 47.7719 56.7585 47.8228 56.6379C47.8736 56.5172 47.8998 56.3876 47.8997 56.2566C47.8997 55.9888 47.7939 55.7319 47.6055 55.5425C47.4172 55.3531 47.1617 55.2466 46.8953 55.2466L43.4665 55.2466C43.3642 55.2399 43.2672 55.1983 43.1916 55.1287C43.1161 55.059 43.0664 54.9655 43.0509 54.8637C43.0407 54.7581 43.0708 54.6527 43.1351 54.5687C43.1994 54.4846 43.2931 54.4282 43.3972 54.411L46.549 53.7494C46.6773 53.7285 46.8001 53.6819 46.9101 53.6123C47.0201 53.5427 47.115 53.4517 47.1893 53.3445C47.2636 53.2373 47.3157 53.1161 47.3426 52.9883C47.3694 52.8605 47.3704 52.7285 47.3455 52.6002C47.2801 52.3453 47.1244 52.1233 46.9075 51.9758C46.6907 51.8283 46.4276 51.7656 46.168 51.7994L43.0162 52.4262C42.9662 52.4419 42.9135 52.4471 42.8613 52.4415C42.8092 52.4358 42.7589 52.4194 42.7134 52.3932C42.6679 52.3671 42.6282 52.3318 42.5969 52.2895C42.5656 52.2473 42.5433 52.1991 42.5314 52.1478C42.4973 52.046 42.5034 51.9349 42.5486 51.8377C42.5937 51.7404 42.6743 51.6645 42.7737 51.6254L45.7524 50.3719C45.987 50.273 46.1735 50.0853 46.2719 49.8495C46.3233 49.7284 46.3499 49.5982 46.3499 49.4665C46.3499 49.3348 46.3233 49.2046 46.2719 49.0835C46.2261 48.9609 46.1561 48.8486 46.0663 48.7537C45.9764 48.6588 45.8685 48.5832 45.7489 48.5312C45.6293 48.4791 45.5005 48.4519 45.3702 48.451C45.2398 48.4502 45.1107 48.4758 44.9904 48.5263L42.0117 49.7798C41.9099 49.8181 41.7977 49.8182 41.6958 49.7798C41.5939 49.7414 41.5094 49.6671 41.4577 49.5708C41.3959 49.4913 41.3622 49.3934 41.3622 49.2924C41.3622 49.1915 41.3959 49.0934 41.4577 49.0138L44.1245 47.2379C44.2368 47.1675 44.3336 47.0749 44.409 46.9655C44.4843 46.856 44.5366 46.7323 44.5625 46.6018C44.5885 46.4713 44.5876 46.3368 44.5599 46.2067C44.5322 46.0766 44.4783 45.9536 44.4016 45.8452C44.3336 45.7347 44.2428 45.64 44.1352 45.5679C44.0276 45.4958 43.9058 45.4477 43.7782 45.4272C43.6636 45.3763 43.5397 45.3502 43.4145 45.3502C43.2892 45.3502 43.1654 45.3763 43.0509 45.4272L40.3493 47.2379C40.2731 47.3064 40.1744 47.3444 40.0722 47.3444C39.97 47.3444 39.8714 47.3064 39.7952 47.2379C39.7574 47.2021 39.7274 47.1589 39.7068 47.111C39.6863 47.0631 39.6756 47.0115 39.6756 46.9593C39.6756 46.9071 39.6863 46.8557 39.7068 46.8078C39.7274 46.7599 39.7574 46.7167 39.7952 46.6809L42.0464 44.3826C42.1439 44.2949 42.2221 44.1876 42.2758 44.0676C42.3295 43.9477 42.3575 43.8177 42.3581 43.6861C42.3581 43.5494 42.3305 43.4142 42.2769 43.2885C42.2234 43.1628 42.1449 43.0493 42.0464 42.955C41.8559 42.7837 41.6094 42.6889 41.3538 42.6889C41.0982 42.6889 40.8515 42.7837 40.661 42.955L38.3751 45.2531C38.3395 45.291 38.2966 45.3213 38.2489 45.3419C38.2013 45.3626 38.15 45.3734 38.0981 45.3734C38.0462 45.3734 37.9948 45.3626 37.9472 45.3419C37.8995 45.3213 37.8566 45.291 37.821 45.2531C37.7528 45.1765 37.7152 45.0775 37.7152 44.9747C37.7152 44.8719 37.7528 44.7727 37.821 44.6961L39.622 41.98C39.6932 41.8727 39.7425 41.7524 39.7671 41.6259C39.7917 41.4993 39.7911 41.3692 39.7654 41.2429C39.7396 41.1166 39.6891 40.9967 39.617 40.8901C39.5448 40.7835 39.4523 40.6925 39.3449 40.6221C39.1282 40.4723 38.8617 40.4137 38.6027 40.4593C38.3437 40.5049 38.1127 40.6508 37.9595 40.8657L36.1931 43.5818C36.1086 43.6467 36.0052 43.6819 35.8988 43.6819C35.7924 43.6819 35.6889 43.6467 35.6044 43.5818C35.5148 43.5244 35.4483 43.437 35.4166 43.335C35.3849 43.2331 35.39 43.123 35.4312 43.0245L36.6434 40.03C36.6948 39.9089 36.7214 39.7787 36.7214 39.647C36.7214 39.5154 36.6948 39.3851 36.6434 39.264C36.6002 39.144 36.5313 39.0349 36.4415 38.9446C36.3517 38.8544 36.2433 38.7851 36.1239 38.7416C36.0035 38.6899 35.8738 38.6632 35.7429 38.6632C35.6119 38.6632 35.4824 38.6899 35.3619 38.7416C35.2425 38.7851 35.1341 38.8544 35.0443 38.9446C34.9545 39.0349 34.8856 39.144 34.8424 39.264L33.5955 42.2586C33.5434 42.3418 33.4657 42.4056 33.3742 42.4405C33.2827 42.4754 33.1824 42.4795 33.0885 42.452C32.9946 42.4244 32.9121 42.3668 32.8536 42.2879C32.7951 42.209 32.7638 42.1132 32.7643 42.0148L33.4224 38.8462C33.4641 38.5841 33.4049 38.3157 33.257 38.0958C33.109 37.8759 32.8833 37.7208 32.6257 37.6622C32.3907 37.5771 32.1335 37.5771 31.8984 37.6622C31.6695 37.8165 31.5082 38.0534 31.4482 38.3238L30.8248 41.4926C30.8009 41.5938 30.7432 41.6836 30.6612 41.747C30.5792 41.8104 30.4779 41.8435 30.3745 41.8407C30.2732 41.8251 30.1802 41.7752 30.1109 41.6992C30.0416 41.6232 30.0002 41.5258 29.9935 41.4229L29.9935 38.1846C29.9935 37.9168 29.8877 37.6599 29.6993 37.4705C29.5109 37.2811 29.2555 37.1747 28.9891 37.1747C28.7227 37.1747 28.4672 37.2811 28.2788 37.4705C28.0905 37.6599 27.9847 37.9168 27.9847 38.1846L27.9847 41.4229C27.9851 41.528 27.9461 41.6292 27.8755 41.7066C27.8049 41.7841 27.7079 41.832 27.6038 41.8407C27.5469 41.8885 27.4784 41.9201 27.4054 41.9323C27.3323 41.9446 27.2572 41.9371 27.1881 41.9105Z" fill="#531036"/>
<path d="M41.0422 52.5654C41.6821 56.2918 41.2866 60.1235 39.8993 63.6384C35.8124 61.2705 34.6694 54.167 34.6694 54.167C33.6303 64.6132 28.5736 68.4436 27.7424 69.0704C26.738 68.4436 21.716 64.7177 20.8154 54.167C20.8154 54.167 19.6379 61.1313 15.5857 63.6384C14.176 60.1294 13.768 56.2946 14.408 52.5654C14.408 52.5654 12.3992 61.4447 1.38538 58.9028C2.70019 58.2877 3.84704 57.3611 4.72773 56.2028C5.60842 55.0445 6.19665 53.6889 6.44203 52.2519C8.58938 43.8949 14.893 39.0201 27.6039 38.846L28.3312 38.846C41.0076 39.0201 47.3458 43.8949 49.4585 52.2519C49.7129 53.6903 50.3085 55.0457 51.1948 56.2035C52.0811 57.3612 53.232 58.2872 54.5498 58.9028C43.0857 61.4447 41.0422 52.5654 41.0422 52.5654Z" fill="#873B6E"/>
<path d="M44.9213 44.2433C47.0735 46.4452 48.5727 49.2064 49.2507 52.2172C49.5018 53.6068 50.079 54.9162 50.9343 56.0366C51.7897 57.1569 52.8985 58.056 54.1688 58.6592L55 58.9724L54.1341 59.1465C46.2027 60.992 42.8086 56.9529 41.5271 54.4458C41.8169 57.6263 41.3294 60.8298 40.107 63.7777L40.107 64.0215L39.8646 64.0215C37.2612 61.9944 35.477 59.0872 34.8426 55.8387C34.69 58.4619 33.9951 61.0243 32.8024 63.3625C31.6098 65.7007 29.9455 67.7633 27.9156 69.4186L27.7424 69.4186C25.7125 67.7633 24.0483 65.7007 22.8556 63.3625C21.6629 61.0243 20.968 58.4619 20.8154 55.8387C20.193 59.0833 18.4209 61.9907 15.828 64.0215L15.5857 64.0215L15.5857 63.7777C14.405 60.8186 13.9305 57.6225 14.2002 54.4458C12.8841 56.9529 9.48987 60.992 1.5585 59.1465L0.692627 58.9724L1.5585 58.6592C2.8223 58.0517 3.92425 57.1507 4.77338 56.0306C5.62251 54.9105 6.19448 53.6034 6.44202 52.2172C8.72791 43.2683 15.6549 38.8113 27.6039 38.5675L28.8161 38.5675C34.702 38.3653 40.4492 40.3907 44.9213 44.2433ZM51.5365 57.4752C50.1638 56.0427 49.2059 54.261 48.7657 52.3218C46.5491 43.5818 39.7261 39.264 27.9849 39.0899L27.7424 39.0899L27.2576 39.0899C15.4125 39.0899 8.58941 43.5818 6.47668 52.3218C6.20325 53.6611 5.65559 54.9285 4.8685 56.0436C4.08142 57.1586 3.07213 58.0968 1.90487 58.7984C11.9143 60.7135 13.8192 52.8789 13.8885 52.5307L14.408 52.5307C13.8169 56.1098 14.1631 59.782 15.4124 63.1858C18.0139 60.7736 19.7235 57.5447 20.2613 54.0279L20.5731 52.078L20.7809 54.0279C21.7853 64.2652 26.5995 67.9562 27.7078 68.7223C28.8161 67.9911 33.5957 64.2652 34.6348 54.0279L34.8079 52.078L35.1196 54.0279C35.673 57.5394 37.38 60.7635 39.9685 63.1858C41.2295 59.7851 41.5876 56.1128 41.0076 52.5307L41.4924 52.5307C41.4924 52.8789 43.5013 60.7135 53.4761 58.7984C52.7653 58.461 52.1109 58.0146 51.5365 57.4752Z" fill="#541136"/>
<path d="M14.1308 44.4174C14.6156 44.0344 15.1005 43.6862 15.62 43.338C16.1217 42.9851 16.6421 42.6597 17.1786 42.3631C18.2259 41.7701 19.3278 41.2802 20.4689 40.9005C25.0585 39.4603 29.9757 39.4603 34.5653 40.9005C35.7064 41.2802 36.8083 41.7701 37.8556 42.3631C38.4098 42.6765 38.8946 42.9898 39.4141 43.338C39.9336 43.6862 40.4186 44.0344 40.9035 44.4174C42.7778 45.9681 44.3612 47.8431 45.5791 49.954C46.4812 51.4928 47.1468 53.1597 47.5533 54.8985C47.5559 54.9643 47.5378 55.0294 47.5015 55.0843C47.4653 55.1391 47.4127 55.181 47.3513 55.2041C47.29 55.2273 47.2229 55.2304 47.1597 55.2131C47.0965 55.1957 47.0403 55.1587 46.9991 55.1074C46.1887 53.6278 45.2744 52.208 44.2631 50.8592C42.9126 49.0551 41.3417 47.4291 39.5874 46.0193C38.7301 45.3108 37.8277 44.6594 36.8858 44.0693C36.4356 43.7559 35.916 43.4774 35.4311 43.1988L34.7038 42.781C34.4614 42.781 34.1843 42.5371 33.9419 42.3978C31.8526 41.3987 29.7007 40.538 27.4998 39.8211C25.3124 40.544 23.1723 41.4046 21.0924 42.3978C20.8499 42.3978 20.5729 42.6417 20.3304 42.781L19.603 43.1988C19.1181 43.4774 18.5987 43.7559 18.1484 44.0693C17.2066 44.6594 16.3042 45.3108 15.4469 46.0193C13.6926 47.4291 12.1216 49.0551 10.7712 50.8592C9.75981 52.208 8.84541 53.6278 8.035 55.1074C7.99387 55.1587 7.93776 55.1957 7.87455 55.2131C7.81134 55.2304 7.74428 55.2273 7.68292 55.2041C7.62156 55.181 7.56899 55.1391 7.53273 55.0843C7.49646 55.0294 7.47827 54.9643 7.48083 54.8985C7.88731 53.1597 8.55292 51.4928 9.45504 49.954C10.673 47.8431 12.2565 45.9681 14.1308 44.4174Z" fill="#F8CA95"/>
<path d="M42.6007 45.6015C43.844 46.8789 44.9259 48.3056 45.8217 49.8495C46.7129 51.406 47.3777 53.0828 47.7959 54.8288C47.8374 54.9651 47.8254 55.1122 47.7624 55.2398C47.6993 55.3675 47.5899 55.466 47.4568 55.5151C47.3237 55.5641 47.1769 55.5602 47.0467 55.5038C46.9165 55.4474 46.8128 55.3428 46.7569 55.2118C45.959 53.7435 45.0561 52.3355 44.0554 50.9986C42.7179 49.2266 41.171 47.6247 39.4489 46.2282C38.5903 45.5214 37.688 44.8701 36.7474 44.2782C36.4703 44.0693 36.1586 43.8951 35.8815 43.721L35.2928 43.4077L34.5654 43.0245C34.3302 42.8833 34.0874 42.7555 33.8381 42.6416C31.7873 41.6457 29.6694 40.7963 27.4999 40.0997C25.3437 40.802 23.2377 41.6512 21.1964 42.6416C20.9435 42.7482 20.7001 42.8763 20.469 43.0245L19.7071 43.4077L19.1529 43.721C18.8759 43.8951 18.5641 44.0693 18.2871 44.2782C17.3464 44.8701 16.4441 45.5214 15.5856 46.2282C13.8634 47.6247 12.3165 49.2266 10.9791 50.9986C9.97836 52.3355 9.07548 53.7435 8.27756 55.2118C8.22162 55.3428 8.11784 55.4474 7.98763 55.5038C7.85743 55.5602 7.71075 55.5641 7.57763 55.5151C7.44452 55.466 7.33514 55.3675 7.27206 55.2398C7.20899 55.1122 7.19703 54.9651 7.23856 54.8288C7.65671 53.0828 8.32145 51.406 9.21266 49.8495C10.4588 47.6979 12.0775 45.7875 13.9923 44.2085L15.2392 43.2683L15.724 42.955C16.1396 42.6765 16.5899 42.3978 17.0402 42.154C18.1477 41.5516 19.3069 41.0506 20.5036 40.6568C22.7886 39.8791 25.1923 39.5137 27.6038 39.5773C30.0149 39.5202 32.4175 39.8854 34.7039 40.6568C35.898 41.0576 37.0566 41.5584 38.1674 42.154C38.6177 42.3978 39.0679 42.6765 39.4835 42.955L39.9684 43.2683L41.2153 44.2085C41.5963 44.6612 42.0811 45.114 42.6007 45.6015ZM47.2417 55.0029C46.8352 53.2915 46.1817 51.6493 45.3022 50.1281C44.1028 48.0343 42.5295 46.181 40.6611 44.6612C40.2801 44.313 39.8645 44.0344 39.4489 43.721L38.964 43.4077C38.5484 43.164 38.1327 42.8853 37.6825 42.6416C36.5799 42.038 35.4195 41.5481 34.219 41.1792C32.4697 40.6006 30.6539 40.2496 28.816 40.1346C30.5222 40.7202 32.1883 41.418 33.8034 42.2237C34.0673 42.3304 34.3222 42.4584 34.5654 42.6067L35.3273 42.9899C35.504 43.1184 35.6892 43.2346 35.8815 43.338C36.1938 43.5031 36.4947 43.6892 36.782 43.8951C37.7395 44.478 38.6539 45.1299 39.5181 45.8452C41.275 47.2766 42.8563 48.9129 44.2285 50.72C45.2561 52.0818 46.1713 53.5259 46.9647 55.0377L47.2417 55.0029ZM7.75806 55.0029C8.55145 53.491 9.46658 52.047 10.4942 50.6851C12.5494 47.9412 15.0702 45.5837 17.9407 43.721L18.8412 43.1988C19.0335 43.0954 19.2186 42.9789 19.3953 42.8505L20.1573 42.4675C20.4031 42.3136 20.6575 42.1741 20.9192 42.0497C22.5414 41.2699 24.2066 40.5838 25.9067 39.9952C24.0687 40.1101 22.2529 40.4614 20.5036 41.0399C19.3625 41.4196 18.2607 41.9093 17.2134 42.5024C16.7631 42.7461 16.3474 43.0246 15.9318 43.2683L15.447 43.5818C15.0314 43.8952 14.6157 44.1738 14.2347 44.522C12.3664 46.0418 10.793 47.8949 9.5937 49.9887C8.71414 51.5098 8.06071 53.1523 7.65416 54.8637L7.75806 55.0029Z" fill="#531036"/>
<path d="M27.5 41.388C29.4402 41.7533 31.2744 42.5504 32.8684 43.7209C34.4735 44.9339 35.8168 46.4623 36.8167 48.213C37.8358 49.9265 38.5289 51.8157 38.8603 53.7842C39.148 55.2041 39.2296 56.6584 39.1026 58.1019C39.0813 58.1634 39.0416 58.2166 38.9889 58.2543C38.9361 58.292 38.873 58.3123 38.8083 58.3123C38.7435 58.3123 38.6804 58.292 38.6276 58.2543C38.5749 58.2166 38.5352 58.1634 38.5139 58.1019C38.1675 56.7439 37.7866 55.4207 37.3363 54.1323C36.7377 52.4016 35.972 50.7339 35.0504 49.153C34.1483 47.5936 33.0545 46.1547 31.7947 44.8701C30.471 43.5668 29.0207 42.4003 27.4654 41.388C25.9277 42.4098 24.4897 43.5757 23.1707 44.8701C21.9109 46.1547 20.8171 47.5936 19.915 49.153C18.9934 50.7339 18.2278 52.4016 17.6291 54.1323C17.1789 55.4207 16.7979 56.7439 16.4515 58.1019C16.4303 58.1634 16.3905 58.2166 16.3377 58.2543C16.2849 58.292 16.2218 58.3123 16.1571 58.3123C16.0923 58.3123 16.0293 58.292 15.9765 58.2543C15.9238 58.2166 15.884 58.1634 15.8627 58.1019C15.7357 56.6584 15.8174 55.2041 16.1052 53.7842C16.4365 51.8157 17.1295 49.9265 18.1486 48.213C19.1485 46.4623 20.4918 44.9339 22.0969 43.7209C23.7011 42.5457 25.5478 41.7484 27.5 41.388Z" fill="#F8CA95"/>
<path d="M34.6691 44.8701C35.6081 45.8054 36.4231 46.8588 37.0936 48.0041C38.0932 49.7677 38.7954 51.6856 39.1717 53.6799C39.4365 55.1262 39.5179 56.6002 39.414 58.0671C39.3992 58.2005 39.3398 58.325 39.2454 58.4199C39.151 58.5148 39.0272 58.5746 38.8945 58.5895C38.7642 58.5953 38.6357 58.5574 38.5292 58.4818C38.4226 58.4061 38.3441 58.2971 38.3058 58.1717C37.9848 56.8281 37.5917 55.5029 37.1282 54.2021C36.5291 52.4996 35.7754 50.8562 34.8769 49.2924C33.9811 47.7486 32.8993 46.3217 31.6559 45.0442C30.3765 43.7613 28.9857 42.5959 27.4998 41.5621C26.0252 42.5967 24.6459 43.7621 23.3782 45.0442C22.1348 46.3217 21.0529 47.7486 20.1571 49.2924C19.2586 50.8562 18.505 52.4996 17.9059 54.2021C17.4424 55.5029 17.0493 56.8281 16.7283 58.1717C16.6901 58.2971 16.6115 58.4061 16.505 58.4818C16.3984 58.5574 16.2698 58.5953 16.1395 58.5895C16.0068 58.5746 15.8832 58.5148 15.7888 58.4199C15.6944 58.325 15.6348 58.2005 15.62 58.0671C15.5161 56.6002 15.5976 55.1262 15.8624 53.6799C16.2387 51.6856 16.9409 49.7677 17.9405 48.0041C18.9679 46.2218 20.3469 44.6695 21.9928 43.4426C23.5983 42.2404 25.4599 41.4296 27.4304 41.0746L28.8851 40.8657L28.1577 41.214C29.8741 41.6234 31.4891 42.3818 32.9028 43.4426C33.5331 43.864 34.1243 44.3418 34.6691 44.8701ZM38.8253 58.0671C38.929 56.6349 38.8475 55.1954 38.5828 53.7842C38.2208 51.8679 37.5293 50.0298 36.5394 48.3522C35.5485 46.635 34.2162 45.1414 32.6257 43.9648C31.4103 43.0461 30.0365 42.3614 28.5734 41.9451C29.8086 42.7934 30.9675 43.7489 32.0369 44.8004C33.3116 46.1062 34.417 47.5687 35.3272 49.153C36.2373 50.7399 37.0024 52.4065 37.6131 54.1324C38.0717 55.4466 38.4647 56.7831 38.7906 58.1368L38.8253 58.0671ZM16.1395 58.0671C16.4654 56.7134 16.8585 55.3771 17.3171 54.0629C17.9278 52.337 18.6928 50.6704 19.6029 49.0835C20.5053 47.494 21.6116 46.0306 22.8933 44.7309C23.9627 43.6794 25.1216 42.7239 26.3568 41.8756C24.8937 42.2919 23.5199 42.9764 22.3046 43.8951C20.7141 45.0717 19.3818 46.5653 18.3908 48.2825C17.4054 49.9838 16.7254 51.8461 16.3819 53.7842C16.1173 55.1954 16.0358 56.6349 16.1395 58.0671Z" fill="#531036"/>
<path d="M29.8894 54.2021C29.9412 53.2975 29.9412 52.3908 29.8894 51.4862C29.8069 50.5708 29.6565 49.6628 29.4393 48.77C29.0029 46.9128 28.412 45.0957 27.6729 43.338C29.1543 44.7283 30.3336 46.4117 31.1363 48.2825C31.4862 49.2351 31.764 50.2129 31.9675 51.2075C32.4979 54.2225 32.1615 57.3271 30.9978 60.1565C30.4058 61.6727 29.5756 63.0834 28.5387 64.3349C28.5387 64.5438 28.0884 64.3349 28.1577 64.126C28.6914 62.6704 29.1311 61.1816 29.4738 59.6689C29.8005 57.8661 29.9398 56.0339 29.8894 54.2021Z" fill="#F8CA95"/>
<path d="M28.0193 43.4771C29.3346 44.8259 30.3706 46.4238 31.0672 48.178C31.4555 49.1443 31.7456 50.1476 31.9331 51.1726C32.1012 52.1851 32.1822 53.2103 32.1754 54.2368C32.1413 56.3025 31.7305 58.3442 30.9633 60.2607C30.3537 61.797 29.5127 63.2299 28.4696 64.509C28.3851 64.5739 28.2815 64.6091 28.1751 64.6091C28.0687 64.6091 27.9653 64.5739 27.8808 64.509C27.7808 64.4513 27.7027 64.3618 27.6588 64.2547C27.6149 64.1475 27.6077 64.0287 27.6383 63.917C28.1576 62.4802 28.597 61.0155 28.9544 59.5296C29.3568 57.7461 29.5773 55.9261 29.6125 54.0976C29.6797 53.2052 29.6797 52.3088 29.6125 51.4163C29.5276 50.5013 29.3771 49.5935 29.1622 48.7002C28.7094 46.8704 28.1189 45.0778 27.3958 43.3379L26.9802 42.2585L27.8115 43.0593L28.0193 43.4771ZM28.0193 64.0214C28.9663 62.8277 29.7363 61.5024 30.3052 60.0867C31.0573 58.2276 31.4567 56.2436 31.4828 54.2368C31.5067 53.2328 31.4254 52.2292 31.2403 51.2423C31.0646 50.2675 30.7978 49.3115 30.4437 48.387C29.8633 46.9544 29.0563 45.6257 28.0539 44.4522C28.6023 45.8348 29.0537 47.2542 29.4047 48.7002L29.855 51.4512C29.9049 52.3675 29.9049 53.2857 29.855 54.202C29.809 56.0661 29.5769 57.921 29.1622 59.7385C28.9243 61.1844 28.6005 62.6145 28.1925 64.0214L28.0193 64.0214Z" fill="#531036"/>
<path d="M27.4996 43.3381C26.7605 45.0958 26.1696 46.9129 25.7332 48.7701C25.5159 49.6629 25.3654 50.5709 25.2829 51.4862C25.2312 52.3908 25.2312 53.2976 25.2829 54.2022C25.3237 56.0437 25.5559 57.876 25.9757 59.669C26.2996 61.0841 26.7043 62.4793 27.1878 63.8476C27.2038 63.9094 27.1983 63.9747 27.1721 64.0329C27.1458 64.091 27.1004 64.1383 27.0436 64.1669C26.9868 64.1954 26.922 64.2035 26.8599 64.1897C26.7979 64.176 26.7425 64.1412 26.703 64.0912C25.7666 62.8965 25.0082 61.5711 24.4517 60.1566C23.288 57.3272 22.9516 54.2226 23.482 51.2076C23.6855 50.213 23.9633 49.2352 24.3132 48.2826C25.0341 46.4359 26.1178 44.7543 27.4996 43.3381Z" fill="#F8CA95"/>
<path d="M28.1577 42.363L27.7421 43.4424C27.014 45.1923 26.4235 46.9969 25.9758 48.8396C25.7585 49.7206 25.608 50.6167 25.5255 51.5206C25.4583 52.4131 25.4583 53.3094 25.5255 54.2019C25.5607 56.0303 25.7812 57.8504 26.1836 59.6339C26.5057 61.038 26.9104 62.4217 27.3957 63.7776C27.4287 63.8943 27.423 64.0187 27.3792 64.1319C27.3355 64.245 27.2562 64.3407 27.1533 64.4043C27.0638 64.4875 26.9463 64.5338 26.8243 64.5338C26.7023 64.5338 26.5849 64.4875 26.4953 64.4043C25.5295 63.192 24.7474 61.8427 24.1747 60.4001C23.4109 58.4946 23.0001 56.4648 22.9625 54.4108C22.9544 53.3727 23.0356 52.3358 23.2049 51.3117C23.3924 50.2867 23.6825 49.2835 24.0708 48.3172C24.8423 46.4088 26.0252 44.6963 27.5343 43.303L28.1577 42.363ZM26.7723 63.9517C26.2874 62.4893 25.9065 61.0965 25.5947 59.7385C25.1801 57.9209 24.9481 56.066 24.9021 54.2019C24.8522 53.2856 24.8522 52.3674 24.9021 51.4511L25.3523 48.7001C25.7033 47.2541 26.1547 45.8347 26.7031 44.4521C25.7007 45.6256 24.8937 46.9543 24.3133 48.3869C23.9591 49.3114 23.6924 50.2674 23.5166 51.2422C23.3315 52.2291 23.2503 53.2328 23.2743 54.2367C23.3004 56.2435 23.6998 58.2275 24.4518 60.0866C25.0379 61.4797 25.8192 62.7813 26.7723 63.9517Z" fill="#531036"/>
</svg>
